<svg xmlns="http://www.w3.org/2000/svg" viewBox="10.5 33.9 118.0 92.2">
  <path d="M 0.000 0.000 C 0.209 -0.002 0.419 -0.005 0.628 -0.010 C 1.934 -0.040 3.054 0.007 4.226 0.627 C 4.556 0.814 4.842 1.013 5.112 1.278 C 5.139 1.303 5.139 1.303 5.275 1.431 C 5.728 1.866 6.094 2.322 6.383 2.883 C 6.433 2.974 6.482 3.065 6.534 3.159 C 6.952 4.017 7.019 4.971 6.970 5.913 C 6.847 7.112 6.277 8.168 5.716 9.216 C 5.698 9.250 5.698 9.250 5.607 9.422 C 4.608 11.279 3.520 13.069 2.328 14.807 C 1.869 15.477 1.440 16.164 1.009 16.851 C 0.888 17.042 0.764 17.230 0.638 17.417 C 0.223 18.045 -0.029 18.570 -0.207 19.306 C -0.283 19.547 -0.343 19.659 -0.523 19.831 C -0.565 19.865 -0.607 19.899 -0.651 19.935 C -0.906 20.155 -1.088 20.443 -1.283 20.716 C -1.283 20.881 -1.283 21.046 -1.283 21.216 C -1.314 21.254 -1.344 21.293 -1.375 21.332 C -1.715 21.773 -2.005 22.234 -2.284 22.716 C -2.393 22.716 -2.504 22.716 -2.617 22.716 C -2.727 23.101 -2.837 23.486 -2.950 23.882 C -3.115 23.882 -3.280 23.882 -3.450 23.882 C -3.495 23.975 -3.540 24.068 -3.586 24.164 C -4.184 25.348 -4.184 25.348 -4.565 25.601 C -4.637 25.639 -4.709 25.677 -4.784 25.716 C -5.175 25.675 -5.562 25.615 -5.950 25.549 C -6.031 25.536 -6.111 25.522 -6.194 25.508 C -7.546 25.270 -8.544 24.906 -9.617 24.049 C -9.713 23.977 -9.810 23.906 -9.907 23.834 C -10.433 23.429 -10.798 23.007 -11.140 22.438 C -11.280 22.221 -11.428 22.057 -11.617 21.882 C -11.898 21.863 -12.170 21.854 -12.450 21.882 C -12.619 21.991 -12.786 22.102 -12.950 22.216 C -13.181 22.245 -13.384 22.232 -13.617 22.216 C -13.727 21.831 -13.837 21.446 -13.950 21.049 C -13.701 20.305 -13.441 19.665 -12.979 19.023 C -12.640 18.520 -12.396 17.953 -12.135 17.405 C -12.094 17.322 -12.053 17.237 -12.011 17.151 C -11.975 17.075 -11.940 16.999 -11.903 16.921 C -11.777 16.704 -11.635 16.552 -11.450 16.383 C -10.704 16.363 -10.017 16.406 -9.284 16.549 C -9.008 16.329 -8.734 16.109 -8.450 15.883 C -8.065 15.883 -7.680 15.883 -7.284 15.883 C -7.393 15.718 -7.503 15.553 -7.617 15.383 C -7.534 15.328 -7.534 15.328 -7.117 15.049 C -7.088 14.963 -7.060 14.876 -7.031 14.787 C -6.669 13.731 -6.669 13.731 -6.284 13.320 C -5.887 12.878 -5.768 12.373 -5.623 11.810 C -5.537 11.478 -5.467 11.240 -5.271 10.954 C -5.117 10.716 -5.117 10.716 -5.084 10.412 C -5.088 10.309 -5.092 10.207 -5.096 10.101 C -5.099 9.998 -5.102 9.894 -5.105 9.787 C -5.109 9.708 -5.113 9.630 -5.117 9.549 C -5.682 9.611 -6.168 9.729 -6.690 9.955 C -7.306 10.208 -7.917 10.295 -8.575 10.372 C -9.565 10.489 -10.540 10.646 -11.517 10.838 C -11.666 10.868 -11.815 10.897 -11.964 10.925 C -12.174 10.965 -12.384 11.007 -12.594 11.049 C -12.656 11.061 -12.718 11.073 -12.782 11.085 C -13.185 11.169 -13.455 11.301 -13.783 11.549 C -13.783 11.659 -13.783 11.769 -13.783 11.883 C -13.662 11.967 -13.662 11.967 -13.450 12.049 C -13.204 12.054 -12.969 12.049 -12.724 12.035 C -12.653 12.031 -12.581 12.028 -12.508 12.024 C -12.357 12.017 -12.207 12.008 -12.056 12.000 C -11.829 11.987 -11.601 11.976 -11.373 11.965 C -10.681 11.929 -10.008 11.878 -9.325 11.750 C -9.012 11.699 -8.705 11.697 -8.388 11.706 C -8.329 11.706 -8.269 11.707 -8.209 11.708 C -8.067 11.710 -7.925 11.713 -7.784 11.716 C -7.564 11.881 -7.343 12.046 -7.117 12.216 C -7.117 12.546 -7.117 12.876 -7.117 13.216 C -7.276 13.407 -7.436 13.598 -7.596 13.789 C -7.619 13.816 -7.619 13.816 -7.732 13.953 C -7.776 14.005 -7.820 14.057 -7.866 14.111 C -7.906 14.159 -7.946 14.207 -7.987 14.257 C -8.134 14.399 -8.261 14.473 -8.450 14.549 C -9.252 14.637 -9.956 14.584 -10.711 14.299 C -11.420 14.035 -12.025 13.929 -12.783 14.049 C -13.328 14.230 -13.771 14.492 -14.168 14.905 C -14.372 15.160 -14.485 15.446 -14.606 15.747 C -14.663 15.881 -14.721 16.014 -14.778 16.148 C -14.807 16.215 -14.836 16.281 -14.865 16.351 C -15.275 17.305 -15.659 18.020 -16.450 18.716 C -16.445 18.777 -16.440 18.838 -16.435 18.901 C -16.412 19.190 -16.389 19.479 -16.367 19.768 C -16.359 19.873 -16.351 19.979 -16.342 20.088 C -16.295 20.746 -16.284 21.390 -16.304 22.049 C -16.316 22.580 -16.290 22.992 -16.065 23.476 C -15.925 23.726 -15.783 23.883 -15.571 24.075 C -15.169 24.272 -14.838 24.231 -14.398 24.206 C -13.386 24.180 -13.386 24.180 -12.919 24.403 C -12.657 24.561 -12.419 24.739 -12.182 24.931 C -10.756 26.077 -9.094 26.819 -7.309 27.195 C -6.446 27.391 -5.801 27.837 -5.117 28.382 C -5.064 28.424 -5.011 28.466 -4.957 28.509 C -4.670 28.738 -4.391 28.973 -4.117 29.216 C -3.842 29.216 -3.567 29.216 -3.284 29.216 C -3.174 28.996 -3.063 28.776 -2.950 28.549 C -2.620 28.494 -2.290 28.439 -1.950 28.382 C -1.730 28.547 -1.510 28.713 -1.283 28.882 C -0.898 28.828 -0.513 28.772 -0.117 28.716 C -0.065 28.629 -0.012 28.543 0.042 28.454 C 0.452 27.782 0.869 27.147 1.383 26.549 C 1.304 25.857 1.124 25.227 0.886 24.576 C 0.759 24.220 0.688 23.933 0.717 23.549 C 0.648 23.529 0.580 23.509 0.509 23.488 C 0.464 23.474 0.464 23.474 0.237 23.403 C 0.148 23.376 0.059 23.349 -0.032 23.321 C -0.284 23.216 -0.284 23.216 -0.617 22.882 C -0.617 22.442 -0.617 22.002 -0.617 21.549 C -0.496 21.469 -0.376 21.388 -0.251 21.306 C 0.312 20.854 0.597 20.278 0.925 19.645 C 1.101 19.305 1.284 18.968 1.467 18.631 C 1.503 18.565 1.538 18.499 1.575 18.431 C 1.895 17.847 2.263 17.309 2.660 16.775 C 3.039 16.256 3.313 15.711 3.586 15.131 C 3.879 14.520 4.249 14.039 4.716 13.549 C 4.936 13.494 5.157 13.439 5.383 13.383 C 5.582 13.464 5.779 13.548 5.977 13.633 C 6.044 13.661 6.111 13.690 6.180 13.720 C 6.598 13.905 6.994 14.109 7.387 14.344 C 8.912 15.238 10.464 15.760 12.170 16.221 C 13.505 16.591 14.610 17.103 15.614 18.077 C 15.713 18.188 15.809 18.300 15.904 18.414 C 15.957 18.476 16.011 18.538 16.066 18.602 C 16.970 19.687 17.729 20.928 18.306 22.218 C 18.385 22.386 18.471 22.548 18.559 22.712 C 19.078 23.747 19.139 24.789 19.223 25.923 C 19.327 27.294 19.600 28.565 19.957 29.890 C 19.975 29.958 19.993 30.025 20.011 30.094 C 20.029 30.160 20.047 30.227 20.066 30.296 C 20.242 30.957 20.369 31.625 20.487 32.299 C 20.620 33.054 20.769 33.797 20.966 34.539 C 21.180 35.345 21.329 36.154 21.466 36.976 C 21.611 37.840 21.780 38.681 22.029 39.522 C 22.218 40.176 22.338 40.839 22.456 41.508 C 22.636 42.525 22.868 43.514 23.149 44.509 C 23.295 45.032 23.417 45.544 23.497 46.081 C 23.607 46.796 23.809 47.319 24.261 47.888 C 24.895 48.626 25.647 49.250 26.383 49.883 C 27.365 50.728 28.315 51.603 29.254 52.495 C 29.824 53.036 30.389 53.567 31.011 54.048 C 31.223 54.221 31.413 54.405 31.605 54.599 C 31.678 54.673 31.751 54.746 31.826 54.822 C 31.900 54.897 31.974 54.972 32.050 55.049 C 32.186 55.187 32.323 55.324 32.460 55.462 C 32.529 55.532 32.598 55.601 32.669 55.673 C 32.940 55.946 33.212 56.219 33.483 56.491 C 33.688 56.696 33.892 56.901 34.095 57.107 C 35.005 58.025 35.924 58.921 36.908 59.760 C 37.288 60.088 37.651 60.436 38.018 60.778 C 38.647 61.361 39.287 61.919 39.956 62.456 C 43.448 65.285 43.448 65.285 44.336 67.516 C 44.917 69.060 44.919 70.508 44.716 72.133 C 44.706 72.217 44.696 72.301 44.685 72.388 C 44.574 73.263 44.412 74.084 44.060 74.895 C 44.033 74.957 44.007 75.018 43.980 75.081 C 43.842 75.370 43.725 75.542 43.482 75.759 C 43.313 75.868 43.141 75.972 42.965 76.070 C 42.708 76.221 42.540 76.377 42.338 76.593 C 41.846 77.098 41.312 77.532 40.758 77.966 C 40.707 78.006 40.656 78.046 40.604 78.087 C 38.603 79.653 38.603 79.653 37.383 79.883 C 37.134 79.907 36.886 79.914 36.636 79.916 C 36.566 79.917 36.496 79.918 36.424 79.919 C 36.277 79.921 36.129 79.922 35.982 79.922 C 35.761 79.924 35.540 79.929 35.319 79.935 C 34.358 79.947 33.579 79.817 32.717 79.383 C 32.461 79.234 32.245 79.073 32.029 78.872 C 32.002 78.847 32.002 78.847 31.865 78.721 C 31.225 78.097 30.651 77.415 30.383 76.549 C 30.210 75.572 30.204 74.500 30.535 73.556 C 30.680 73.203 30.852 72.875 31.050 72.549 C 30.832 71.826 30.832 71.826 30.583 71.588 C 30.419 71.484 30.252 71.391 30.081 71.299 C 29.332 70.851 28.756 70.286 28.154 69.664 C 27.303 68.788 26.419 68.003 25.460 67.245 C 25.039 66.907 24.626 66.559 24.213 66.211 C 24.076 66.095 23.938 65.980 23.800 65.865 C 22.850 65.066 22.015 64.172 21.183 63.254 C 20.654 62.670 20.111 62.103 19.550 61.549 C 19.414 61.413 19.279 61.276 19.143 61.139 C 18.680 60.676 18.207 60.224 17.727 59.778 C 17.681 59.736 17.635 59.693 17.588 59.649 C 16.868 58.983 16.125 58.359 15.352 57.758 C 15.328 57.738 15.328 57.738 15.204 57.642 C 14.715 57.261 14.222 56.886 13.722 56.519 C 13.647 56.462 13.571 56.405 13.493 56.346 C 13.358 56.244 13.221 56.144 13.082 56.047 C 12.511 55.613 12.237 55.044 11.958 54.398 C 11.765 53.926 11.606 53.444 11.453 52.957 C 11.349 52.627 11.241 52.297 11.133 51.968 C 11.111 51.903 11.090 51.837 11.068 51.770 C 10.798 50.952 10.489 50.150 10.170 49.350 C 10.085 49.137 10.000 48.924 9.916 48.710 C 8.606 45.387 7.250 42.080 5.825 38.803 C 5.747 38.622 5.668 38.440 5.590 38.258 C 5.482 38.007 5.373 37.756 5.263 37.506 C 5.247 37.470 5.247 37.470 5.168 37.284 C 4.968 36.836 4.752 36.542 4.383 36.216 C 4.328 36.224 4.272 36.231 4.215 36.239 C 2.521 36.462 2.521 36.462 2.028 36.282 C 1.797 36.163 1.588 36.042 1.383 35.883 C 1.163 35.938 0.943 35.992 0.717 36.049 C 0.826 36.324 0.936 36.599 1.050 36.883 C 1.216 36.980 1.383 37.078 1.550 37.174 C 1.601 37.204 1.653 37.235 1.707 37.266 C 1.990 37.429 2.274 37.579 2.573 37.713 C 3.435 38.099 3.435 38.099 3.727 38.396 C 3.864 38.609 3.958 38.814 4.050 39.049 C 4.060 39.074 4.060 39.074 4.111 39.200 C 4.298 39.663 4.471 40.130 4.619 40.606 C 4.817 41.234 5.078 41.812 5.369 42.402 C 5.824 43.333 6.193 44.253 6.480 45.252 C 6.910 46.741 7.479 48.185 8.216 49.549 C 7.995 50.393 7.602 51.043 7.123 51.758 C 7.019 51.914 6.917 52.070 6.814 52.226 C 6.721 52.367 6.628 52.506 6.535 52.646 C 6.233 53.116 6.233 53.116 6.189 53.377 C 6.123 54.864 6.409 56.270 6.707 57.717 C 6.776 58.051 6.842 58.385 6.908 58.719 C 7.224 60.300 7.556 61.879 7.893 63.456 C 8.159 64.707 8.367 65.959 8.546 67.224 C 8.677 68.145 8.838 69.052 9.029 69.963 C 9.143 70.508 9.248 71.053 9.341 71.602 C 9.347 71.632 9.347 71.632 9.373 71.787 C 9.414 72.032 9.456 72.278 9.497 72.523 C 9.624 73.268 9.780 73.992 9.998 74.716 C 10.226 75.494 10.349 76.240 10.216 77.049 C 9.976 77.988 9.381 78.853 8.716 79.549 C 8.125 80.094 7.498 80.656 6.716 80.883 C 6.478 80.904 6.478 80.904 6.227 80.906 C 6.131 80.907 6.035 80.908 5.936 80.909 C 5.831 80.909 5.727 80.909 5.620 80.909 C 5.508 80.910 5.396 80.911 5.285 80.912 C 4.982 80.914 4.679 80.915 4.377 80.916 C 4.187 80.916 3.997 80.917 3.808 80.918 C 3.213 80.920 2.619 80.922 2.025 80.922 C 1.341 80.923 0.658 80.926 -0.026 80.931 C -0.556 80.934 -1.086 80.936 -1.616 80.936 C -1.932 80.937 -2.248 80.938 -2.563 80.941 C -2.861 80.943 -3.158 80.944 -3.456 80.942 C -3.616 80.942 -3.775 80.944 -3.935 80.947 C -4.569 80.941 -5.019 80.818 -5.577 80.516 C -5.871 80.326 -6.090 80.115 -6.304 79.841 C -6.345 79.790 -6.386 79.740 -6.428 79.688 C -6.550 79.532 -6.668 79.375 -6.784 79.216 C -6.819 79.169 -6.853 79.121 -6.889 79.073 C -7.314 78.478 -7.560 77.877 -7.637 77.153 C -7.676 76.229 -7.270 75.363 -6.869 74.551 C -6.705 74.242 -6.512 73.980 -6.284 73.716 C -6.221 73.641 -6.159 73.566 -6.096 73.489 C -5.767 73.156 -5.480 72.942 -5.035 72.806 C -4.652 72.712 -4.269 72.629 -3.881 72.562 C -3.835 72.553 -3.835 72.553 -3.604 72.511 C -3.523 72.498 -3.441 72.485 -3.357 72.472 C -3.020 72.346 -2.857 72.148 -2.617 71.883 C -2.698 70.700 -2.905 69.580 -3.185 68.430 C -3.302 67.950 -3.415 67.469 -3.528 66.989 C -3.550 66.893 -3.573 66.797 -3.596 66.698 C -3.768 65.962 -3.919 65.222 -4.060 64.479 C -4.369 62.845 -4.763 61.233 -5.162 59.619 C -5.620 57.758 -6.045 55.896 -6.391 54.010 C -6.434 53.794 -6.483 53.585 -6.538 53.372 C -6.860 52.054 -6.631 50.714 -6.263 49.435 C -6.129 48.979 -5.987 48.526 -5.843 48.073 C -5.767 47.830 -5.695 47.586 -5.623 47.342 C -5.096 45.570 -4.372 43.910 -3.581 42.240 C -3.213 41.464 -2.867 40.707 -2.617 39.883 C -2.450 39.386 -2.233 38.952 -1.959 38.504 C -1.930 38.456 -1.901 38.408 -1.871 38.359 C -1.749 38.161 -1.628 37.963 -1.502 37.767 C -1.209 37.312 -0.947 36.895 -0.910 36.344 C -0.904 36.021 -0.921 35.704 -0.950 35.383 C -1.547 35.004 -2.156 34.693 -2.804 34.414 C -2.903 34.371 -3.002 34.328 -3.104 34.284 C -4.030 33.891 -4.985 33.608 -5.948 33.321 C -7.060 32.987 -8.003 32.569 -8.950 31.882 C -8.950 31.828 -8.950 31.772 -8.950 31.716 C -9.057 31.698 -9.165 31.679 -9.275 31.660 C -10.239 31.493 -11.192 31.298 -12.141 31.058 C -13.236 30.792 -14.322 30.708 -15.445 30.698 C -17.479 30.679 -19.239 30.574 -21.115 29.761 C -21.722 29.498 -22.346 29.287 -22.971 29.072 C -23.264 28.971 -23.556 28.869 -23.849 28.765 C -23.902 28.747 -23.955 28.728 -24.009 28.709 C -24.315 28.601 -24.611 28.481 -24.908 28.350 C -25.160 28.247 -25.348 28.197 -25.620 28.220 C -25.719 28.239 -25.817 28.258 -25.919 28.278 C -26.096 28.313 -26.273 28.348 -26.450 28.382 C -26.779 29.352 -27.090 30.325 -27.378 31.307 C -27.418 31.441 -27.457 31.576 -27.497 31.710 C -27.602 32.068 -27.707 32.426 -27.812 32.785 C -27.878 33.009 -27.944 33.234 -28.010 33.459 C -28.496 35.118 -28.974 36.779 -29.423 38.449 C -29.442 38.518 -29.460 38.587 -29.479 38.658 C -29.656 39.316 -29.832 39.974 -30.004 40.634 C -30.308 41.791 -30.620 42.945 -30.988 44.084 C -31.037 44.239 -31.086 44.394 -31.134 44.549 C -31.359 45.226 -31.634 45.848 -32.117 46.383 C -32.461 46.630 -32.800 46.697 -33.216 46.748 C -33.523 46.770 -33.828 46.779 -34.136 46.785 C -34.252 46.788 -34.367 46.791 -34.483 46.795 C -34.790 46.803 -35.098 46.810 -35.405 46.816 C -35.662 46.821 -35.919 46.828 -36.176 46.834 C -36.989 46.854 -37.803 46.869 -38.617 46.883 C -38.716 46.884 -38.815 46.886 -38.917 46.887 C -39.179 46.892 -39.441 46.895 -39.703 46.898 C -39.738 46.899 -39.738 46.899 -39.914 46.901 C -41.285 46.914 -42.653 46.880 -44.023 46.814 C -46.120 46.715 -48.217 46.664 -50.317 46.650 C -50.829 46.647 -51.340 46.642 -51.852 46.631 C -55.819 46.554 -55.819 46.554 -57.101 47.211 C -57.323 47.340 -57.540 47.474 -57.756 47.611 C -58.220 47.861 -58.765 47.879 -59.284 47.883 C -59.448 47.773 -59.613 47.663 -59.784 47.549 C -59.661 46.934 -59.661 46.934 -59.440 46.674 C -59.414 46.654 -59.414 46.654 -59.284 46.549 C -59.284 46.274 -59.284 45.999 -59.284 45.716 C -59.393 45.606 -59.504 45.496 -59.617 45.383 C -60.125 45.296 -60.610 45.274 -61.117 45.383 C -61.543 45.551 -61.949 45.756 -62.357 45.966 C -63.099 46.347 -63.748 46.657 -64.606 46.622 C -64.836 46.607 -65.056 46.583 -65.284 46.549 C -65.560 46.298 -65.751 46.122 -65.905 45.780 C -66.079 45.134 -66.161 44.552 -66.117 43.883 C -65.479 43.252 -64.724 42.888 -63.877 42.617 C -63.388 42.490 -62.889 42.439 -62.388 42.383 C -60.961 42.222 -59.615 41.933 -58.429 41.091 C -58.092 40.857 -57.801 40.698 -57.390 40.640 C -56.913 40.610 -56.397 40.598 -55.950 40.786 C -55.843 40.845 -55.738 40.904 -55.632 40.962 C -54.402 41.613 -52.970 41.438 -51.626 41.390 C -51.458 41.384 -51.290 41.377 -51.123 41.371 C -50.779 41.358 -50.434 41.349 -50.090 41.339 C -48.932 41.305 -47.774 41.262 -46.617 41.216 C -46.442 41.209 -46.268 41.202 -46.093 41.195 C -44.952 41.151 -43.810 41.102 -42.669 41.049 C -42.593 41.046 -42.517 41.042 -42.440 41.039 C -42.005 41.019 -41.571 40.998 -41.137 40.976 C -41.006 40.969 -40.876 40.963 -40.745 40.957 C -40.567 40.948 -40.389 40.939 -40.211 40.929 C -40.112 40.924 -40.012 40.919 -39.910 40.914 C -39.577 40.878 -39.274 40.804 -38.950 40.716 C -38.935 40.635 -38.919 40.555 -38.903 40.472 C -38.579 38.803 -38.236 37.139 -37.858 35.482 C -37.849 35.441 -37.849 35.441 -37.803 35.237 C -37.707 34.819 -37.612 34.401 -37.516 33.983 C -36.845 31.044 -36.207 28.102 -35.649 25.140 C -35.644 25.112 -35.644 25.112 -35.617 24.969 C -35.566 24.695 -35.514 24.421 -35.463 24.148 C -35.327 23.422 -35.173 22.702 -35.013 21.982 C -34.832 21.160 -34.700 20.353 -34.632 19.515 C -34.605 19.181 -34.569 18.848 -34.535 18.514 C -34.528 18.447 -34.521 18.380 -34.514 18.310 C -34.308 16.341 -33.904 14.642 -33.125 12.816 C -32.746 11.921 -32.461 11.040 -32.238 10.095 C -31.771 8.126 -31.012 6.558 -29.627 5.060 C -27.958 3.296 -26.163 2.413 -23.846 1.674 C -23.768 1.649 -23.691 1.624 -23.611 1.598 C -21.886 1.080 -20.146 1.008 -18.359 0.991 C -14.984 0.958 -11.630 0.709 -8.267 0.437 C -7.999 0.415 -7.731 0.394 -7.463 0.372 C -7.376 0.365 -7.289 0.358 -7.199 0.351 C -4.803 0.159 -2.405 0.015 0.000 0.000 Z" fill="#FFFFFF" transform="translate(80.61690266927083,42.117472330729164)"/>
  <path d="M 0.000 0.000 C 0.735 0.219 1.450 0.440 2.114 0.830 C 2.164 0.859 2.214 0.889 2.265 0.919 C 2.369 0.980 2.473 1.041 2.576 1.103 C 4.017 1.945 5.532 2.416 7.138 2.848 C 8.467 3.213 9.565 3.725 10.564 4.695 C 10.663 4.805 10.760 4.917 10.854 5.031 C 10.907 5.093 10.961 5.156 11.016 5.220 C 11.920 6.305 12.680 7.546 13.257 8.835 C 13.335 9.004 13.422 9.166 13.510 9.329 C 14.029 10.364 14.089 11.406 14.173 12.540 C 14.277 13.912 14.550 15.182 14.907 16.508 C 14.925 16.575 14.943 16.642 14.962 16.712 C 14.970 16.745 14.970 16.745 15.016 16.913 C 15.192 17.575 15.319 18.242 15.438 18.917 C 15.571 19.672 15.720 20.415 15.917 21.156 C 16.131 21.963 16.279 22.772 16.417 23.594 C 16.562 24.457 16.731 25.299 16.979 26.139 C 17.168 26.793 17.288 27.456 17.406 28.125 C 17.586 29.143 17.819 30.132 18.099 31.127 C 18.245 31.650 18.367 32.161 18.447 32.698 C 18.557 33.413 18.759 33.936 19.212 34.505 C 19.845 35.243 20.598 35.868 21.333 36.500 C 22.315 37.346 23.265 38.220 24.204 39.112 C 24.774 39.653 25.339 40.184 25.962 40.665 C 26.173 40.839 26.363 41.022 26.555 41.217 C 26.628 41.290 26.701 41.364 26.776 41.440 C 26.850 41.515 26.924 41.590 27.000 41.667 C 27.137 41.804 27.273 41.942 27.410 42.079 C 27.479 42.149 27.548 42.218 27.619 42.290 C 27.890 42.563 28.162 42.836 28.433 43.109 C 28.638 43.314 28.842 43.519 29.045 43.724 C 29.955 44.643 30.874 45.538 31.858 46.377 C 32.238 46.706 32.601 47.053 32.969 47.396 C 33.597 47.978 34.237 48.537 34.906 49.073 C 38.398 51.902 38.398 51.902 39.286 54.133 C 39.868 55.678 39.869 57.125 39.667 58.750 C 39.657 58.834 39.646 58.919 39.636 59.006 C 39.524 59.881 39.362 60.701 39.010 61.513 C 38.983 61.574 38.957 61.635 38.930 61.698 C 38.792 61.988 38.675 62.159 38.432 62.377 C 38.263 62.486 38.091 62.590 37.915 62.687 C 37.658 62.838 37.491 62.994 37.288 63.211 C 36.797 63.716 36.262 64.150 35.708 64.583 C 35.683 64.603 35.683 64.603 35.554 64.705 C 33.553 66.270 33.553 66.270 32.333 66.500 C 32.084 66.525 31.836 66.531 31.586 66.534 C 31.516 66.535 31.446 66.536 31.374 66.537 C 31.227 66.538 31.079 66.539 30.932 66.540 C 30.711 66.542 30.491 66.547 30.269 66.552 C 29.308 66.564 28.529 66.435 27.667 66.000 C 27.412 65.851 27.195 65.691 26.979 65.490 C 26.925 65.439 26.871 65.389 26.816 65.338 C 26.175 64.714 25.602 64.032 25.333 63.167 C 25.160 62.189 25.154 61.117 25.486 60.173 C 25.630 59.820 25.802 59.492 26.000 59.167 C 25.782 58.444 25.782 58.444 25.534 58.206 C 25.370 58.101 25.203 58.008 25.031 57.917 C 24.282 57.468 23.707 56.904 23.104 56.281 C 22.253 55.405 21.369 54.620 20.411 53.862 C 19.989 53.524 19.576 53.177 19.163 52.828 C 19.026 52.713 18.888 52.597 18.750 52.482 C 17.800 51.683 16.965 50.790 16.134 49.871 C 15.604 49.288 15.061 48.721 14.500 48.167 C 14.364 48.030 14.229 47.893 14.093 47.756 C 13.630 47.294 13.157 46.842 12.677 46.396 C 12.654 46.375 12.654 46.375 12.538 46.266 C 11.819 45.601 11.075 44.976 10.302 44.375 C 10.278 44.356 10.278 44.356 10.154 44.260 C 9.665 43.879 9.172 43.503 8.672 43.136 C 8.597 43.079 8.521 43.022 8.444 42.964 C 8.308 42.862 8.171 42.762 8.033 42.664 C 7.461 42.230 7.187 41.662 6.908 41.016 C 6.715 40.544 6.556 40.061 6.404 39.575 C 6.299 39.244 6.191 38.915 6.083 38.585 C 6.061 38.520 6.040 38.455 6.018 38.387 C 5.748 37.569 5.439 36.768 5.120 35.968 C 5.035 35.755 4.950 35.541 4.866 35.328 C 3.556 32.005 2.200 28.697 0.775 25.421 C 0.697 25.239 0.618 25.057 0.540 24.875 C 0.432 24.624 0.323 24.374 0.213 24.124 C 0.182 24.050 0.150 23.977 0.118 23.902 C -0.082 23.453 -0.298 23.160 -0.667 22.833 C -0.722 22.841 -0.777 22.849 -0.834 22.857 C -2.535 23.080 -2.535 23.080 -2.993 22.906 C -3.240 22.771 -3.240 22.771 -3.459 22.628 C -3.789 22.424 -4.119 22.389 -4.500 22.333 C -4.555 21.893 -4.610 21.453 -4.667 21.000 C -4.574 20.898 -4.482 20.795 -4.387 20.689 C -4.265 20.553 -4.143 20.417 -4.021 20.281 C -3.960 20.214 -3.899 20.146 -3.837 20.077 C -3.666 19.887 -3.499 19.694 -3.333 19.500 C -3.265 19.421 -3.197 19.343 -3.126 19.262 C -2.930 18.856 -2.952 18.466 -2.958 18.021 C -2.957 17.935 -2.956 17.848 -2.954 17.760 C -2.958 17.164 -3.072 16.702 -3.333 16.167 C -3.412 16.146 -3.490 16.126 -3.571 16.105 C -3.675 16.078 -3.778 16.050 -3.885 16.021 C -3.988 15.994 -4.090 15.967 -4.196 15.939 C -4.517 15.828 -4.728 15.699 -5.000 15.500 C -4.962 15.123 -4.904 14.787 -4.710 14.457 C -4.559 14.254 -4.402 14.059 -4.240 13.865 C -4.185 13.797 -4.130 13.729 -4.073 13.659 C -3.939 13.494 -3.804 13.330 -3.667 13.167 C -3.753 12.474 -3.925 11.846 -4.164 11.193 C -4.291 10.838 -4.361 10.551 -4.333 10.167 C -4.367 10.156 -4.367 10.156 -4.540 10.106 C -4.630 10.078 -4.720 10.050 -4.812 10.021 C -4.857 10.007 -4.857 10.007 -5.082 9.939 C -5.333 9.833 -5.333 9.833 -5.667 9.500 C -5.667 9.060 -5.667 8.620 -5.667 8.167 C -5.546 8.086 -5.425 8.006 -5.301 7.923 C -4.737 7.472 -4.453 6.895 -4.125 6.263 C -3.948 5.922 -3.766 5.585 -3.583 5.249 C -3.547 5.183 -3.511 5.117 -3.475 5.049 C -3.154 4.465 -2.786 3.927 -2.389 3.392 C -2.010 2.873 -1.737 2.328 -1.463 1.748 C -1.172 1.144 -0.821 0.631 -0.333 0.167 C -0.224 0.108 -0.113 0.052 0.000 0.000 Z" fill="#FFFFFF" transform="translate(85.66666666666667,55.5)"/>
  <path d="M 0.000 0.000 C 0.055 0.165 0.110 0.330 0.167 0.500 C 0.057 0.775 -0.053 1.050 -0.167 1.333 C -0.112 1.388 -0.057 1.443 0.000 1.500 C 0.117 2.788 -0.222 3.812 -0.667 5.010 C -1.458 7.152 -1.458 7.152 -1.333 8.333 C -1.168 8.498 -1.003 8.663 -0.833 8.833 C -0.373 8.830 0.083 8.794 0.498 8.583 C 0.667 8.476 0.827 8.362 0.987 8.242 C 1.045 8.198 1.103 8.154 1.163 8.109 C 1.728 7.656 2.078 7.125 2.436 6.504 C 3.196 5.197 4.087 4.111 5.141 3.036 C 5.567 2.602 5.971 2.151 6.375 1.698 C 6.497 1.561 6.620 1.425 6.742 1.288 C 6.828 1.192 6.914 1.096 7.000 1.000 C 7.110 1.000 7.220 1.000 7.333 1.000 C 7.388 0.890 7.443 0.780 7.500 0.667 C 8.285 1.929 8.829 3.244 9.247 4.668 C 9.691 6.167 10.256 7.624 11.000 9.000 C 10.779 9.844 10.386 10.494 9.906 11.208 C 9.803 11.364 9.700 11.521 9.597 11.677 C 9.505 11.818 9.411 11.957 9.318 12.097 C 9.017 12.567 9.017 12.567 8.973 12.827 C 8.907 14.315 9.193 15.720 9.491 17.168 C 9.559 17.502 9.626 17.836 9.692 18.170 C 10.008 19.751 10.339 21.330 10.676 22.907 C 10.943 24.157 11.151 25.410 11.330 26.675 C 11.460 27.596 11.622 28.503 11.812 29.414 C 11.926 29.959 12.032 30.504 12.125 31.053 C 12.135 31.114 12.146 31.175 12.156 31.238 C 12.198 31.483 12.239 31.729 12.281 31.974 C 12.407 32.719 12.563 33.443 12.781 34.167 C 13.010 34.945 13.132 35.691 13.000 36.500 C 12.760 37.439 12.165 38.303 11.500 39.000 C 10.908 39.545 10.282 40.106 9.500 40.333 C 9.262 40.355 9.262 40.355 9.010 40.357 C 8.914 40.358 8.818 40.359 8.719 40.360 C 8.667 40.360 8.667 40.360 8.403 40.360 C 8.292 40.361 8.180 40.362 8.068 40.363 C 7.766 40.365 7.463 40.366 7.160 40.367 C 6.971 40.367 6.781 40.368 6.591 40.369 C 5.997 40.371 5.403 40.373 4.809 40.373 C 4.125 40.374 3.441 40.377 2.758 40.382 C 2.228 40.385 1.698 40.387 1.168 40.387 C 0.852 40.387 0.536 40.388 0.220 40.391 C -0.077 40.394 -0.375 40.394 -0.672 40.393 C -0.832 40.393 -0.992 40.395 -1.151 40.397 C -1.786 40.391 -2.235 40.269 -2.793 39.966 C -3.088 39.777 -3.306 39.566 -3.521 39.292 C -3.541 39.266 -3.541 39.266 -3.645 39.138 C -3.767 38.983 -3.884 38.826 -4.000 38.667 C -4.035 38.619 -4.070 38.572 -4.106 38.523 C -4.530 37.928 -4.776 37.328 -4.853 36.604 C -4.892 35.680 -4.487 34.814 -4.085 34.002 C -3.921 33.693 -3.728 33.430 -3.500 33.167 C -3.469 33.129 -3.469 33.129 -3.312 32.940 C -2.983 32.607 -2.696 32.393 -2.251 32.257 C -1.868 32.163 -1.486 32.080 -1.097 32.012 C -1.006 31.996 -0.915 31.979 -0.821 31.962 C -0.780 31.956 -0.780 31.956 -0.573 31.923 C -0.236 31.797 -0.074 31.599 0.167 31.333 C 0.086 30.151 -0.122 29.031 -0.402 27.880 C -0.518 27.400 -0.631 26.920 -0.744 26.439 C -0.767 26.344 -0.789 26.248 -0.812 26.149 C -0.985 25.412 -1.136 24.673 -1.276 23.930 C -1.586 22.295 -1.980 20.684 -2.378 19.069 C -2.836 17.209 -3.261 15.346 -3.608 13.461 C -3.651 13.245 -3.699 13.035 -3.754 12.823 C -4.077 11.505 -3.848 10.165 -3.479 8.885 C -3.345 8.429 -3.203 7.976 -3.059 7.523 C -3.002 7.340 -2.946 7.155 -2.892 6.971 C -2.176 4.549 -1.134 2.254 0.000 0.000 Z" fill="#FFFFFF" transform="translate(77.83333333333333,82.66666666666667)"/>
  <path d="M 0.000 0.000 C 1.580 0.688 2.898 1.458 3.943 2.864 C 5.161 4.547 6.227 6.464 6.505 8.556 C 6.683 10.710 6.526 13.197 5.620 15.181 C 5.382 15.654 5.119 16.107 4.838 16.556 C 4.812 16.597 4.812 16.597 4.683 16.806 C 3.780 18.233 2.584 19.307 1.287 20.372 C 0.652 20.899 0.194 21.386 -0.220 22.104 C -0.430 22.466 -0.632 22.735 -0.981 22.977 C -1.507 23.206 -2.043 23.261 -2.610 23.275 C -2.674 23.279 -2.738 23.284 -2.804 23.289 C -3.335 23.300 -3.722 23.133 -4.190 22.908 C -5.025 22.510 -5.859 22.352 -6.766 22.202 C -7.067 22.150 -7.368 22.098 -7.669 22.044 C -7.741 22.032 -7.813 22.019 -7.887 22.006 C -8.310 21.930 -8.714 21.833 -9.126 21.706 C -9.639 21.550 -10.109 21.517 -10.641 21.504 C -11.497 21.456 -12.130 21.255 -12.846 20.787 C -13.284 20.477 -13.644 20.127 -13.995 19.723 C -14.061 19.650 -14.126 19.578 -14.194 19.503 C -14.718 18.904 -15.086 18.296 -15.412 17.566 C -15.437 17.513 -15.461 17.460 -15.486 17.405 C -16.031 16.209 -16.456 14.982 -16.829 13.723 C -16.850 13.654 -16.871 13.585 -16.893 13.514 C -17.022 13.087 -17.104 12.664 -17.162 12.223 C -17.175 12.127 -17.188 12.031 -17.201 11.933 C -17.471 9.749 -17.235 7.718 -16.385 5.678 C -15.698 4.102 -14.727 2.907 -13.495 1.723 C -13.397 1.621 -13.299 1.520 -13.201 1.419 C -11.941 0.168 -9.989 -0.514 -8.318 -0.990 C -5.446 -1.735 -2.681 -1.119 0.000 0.000 Z" fill="#FFFFFF" transform="translate(40.995442708333336,38.610677083333336)"/>
  <path d="M 0.000 0.000 C 1.091 0.033 1.091 0.033 1.495 0.256 C 1.601 0.329 1.706 0.403 1.811 0.477 C 2.288 0.808 2.734 1.008 3.318 1.070 C 3.629 1.094 3.938 1.100 4.250 1.104 C 4.279 1.105 4.279 1.105 4.423 1.111 C 5.119 1.131 5.738 1.044 6.396 0.810 C 8.619 0.022 10.780 0.051 13.120 0.080 C 13.547 0.084 13.973 0.084 14.400 0.083 C 14.816 0.082 15.231 0.084 15.646 0.087 C 15.842 0.088 16.038 0.089 16.235 0.088 C 17.208 0.089 18.065 0.094 18.948 0.534 C 19.205 0.690 19.442 0.856 19.663 1.059 C 20.041 1.298 20.494 1.342 20.932 1.365 C 21.367 1.380 21.803 1.387 22.239 1.392 C 22.425 1.395 22.611 1.399 22.797 1.405 C 23.714 1.437 24.531 1.449 25.369 1.039 C 25.570 0.930 25.766 0.814 25.963 0.696 C 26.705 0.272 27.518 0.309 28.351 0.311 C 28.469 0.311 28.586 0.311 28.704 0.310 C 29.024 0.310 29.344 0.311 29.663 0.312 C 29.866 0.312 30.070 0.313 30.273 0.313 C 31.876 0.314 33.479 0.332 35.081 0.377 C 35.154 0.379 35.226 0.381 35.300 0.383 C 35.665 0.394 36.030 0.404 36.395 0.415 C 36.468 0.417 36.540 0.419 36.614 0.421 C 36.760 0.425 36.906 0.429 37.052 0.433 C 40.206 0.524 43.348 0.459 46.500 0.333 C 46.665 0.553 46.830 0.773 47.000 1.000 C 46.945 2.045 46.890 3.090 46.833 4.167 C 46.558 4.442 46.283 4.717 46.000 5.000 C 45.859 4.976 45.718 4.952 45.573 4.927 C 44.994 4.830 44.414 4.747 43.833 4.667 C 43.668 4.832 43.503 4.997 43.333 5.167 C 43.304 8.173 43.277 11.180 43.253 14.186 C 43.250 14.541 43.247 14.896 43.244 15.251 C 43.243 15.321 43.243 15.392 43.242 15.465 C 43.232 16.609 43.222 17.753 43.211 18.898 C 43.199 20.071 43.189 21.245 43.180 22.419 C 43.175 23.144 43.168 23.868 43.160 24.593 C 43.155 25.089 43.151 25.586 43.148 26.083 C 43.146 26.369 43.144 26.656 43.140 26.942 C 43.136 27.253 43.134 27.564 43.133 27.875 C 43.131 27.965 43.130 28.056 43.128 28.149 C 43.129 28.749 43.129 28.749 43.243 29.003 C 43.335 29.143 43.335 29.143 43.500 29.333 C 44.062 29.506 44.565 29.515 45.150 29.499 C 45.342 29.496 45.534 29.493 45.725 29.490 C 46.024 29.485 46.323 29.479 46.622 29.472 C 46.913 29.464 47.203 29.460 47.494 29.457 C 47.538 29.456 47.538 29.456 47.762 29.448 C 48.121 29.445 48.406 29.459 48.737 29.604 C 49.163 29.853 49.503 30.135 49.833 30.500 C 49.833 30.885 49.833 31.270 49.833 31.667 C 49.155 32.133 49.155 32.133 48.774 32.215 C 48.530 32.234 48.291 32.239 48.046 32.239 C 47.954 32.241 47.863 32.242 47.768 32.244 C 47.465 32.249 47.162 32.250 46.859 32.252 C 46.643 32.255 46.428 32.258 46.212 32.261 C 45.758 32.267 45.304 32.272 44.850 32.276 C 44.172 32.281 43.494 32.289 42.817 32.298 C 41.819 32.312 40.822 32.320 39.824 32.326 C 39.214 32.330 38.603 32.336 37.993 32.346 C 37.507 32.354 37.022 32.360 36.536 32.364 C 36.334 32.367 36.133 32.370 35.932 32.374 C 34.201 32.409 34.201 32.409 33.559 32.102 C 33.264 31.925 33.084 31.750 32.833 31.500 C 32.888 31.115 32.943 30.730 33.000 30.333 C 33.200 30.224 33.402 30.117 33.604 30.010 C 33.659 29.980 33.715 29.950 33.771 29.918 C 34.561 29.509 35.415 29.475 36.288 29.496 C 36.465 29.498 36.642 29.500 36.819 29.502 C 37.093 29.506 37.367 29.510 37.642 29.516 C 37.909 29.521 38.177 29.524 38.445 29.527 C 38.486 29.528 38.486 29.528 38.693 29.534 C 38.769 29.534 38.846 29.535 38.925 29.535 C 38.959 29.536 38.959 29.536 39.128 29.539 C 39.412 29.485 39.598 29.330 39.833 29.167 C 39.833 29.120 39.833 29.072 39.833 29.023 C 39.818 26.222 39.806 23.420 39.799 20.619 C 39.798 20.282 39.798 19.945 39.797 19.608 C 39.797 19.541 39.796 19.474 39.796 19.405 C 39.793 18.321 39.788 17.237 39.782 16.153 C 39.776 15.040 39.772 13.927 39.771 12.814 C 39.770 12.128 39.767 11.441 39.761 10.755 C 39.758 10.284 39.757 9.812 39.758 9.341 C 39.758 9.070 39.757 8.798 39.754 8.527 C 39.735 6.817 39.735 6.817 39.977 6.321 C 40.136 6.076 40.294 5.874 40.500 5.667 C 40.526 5.639 40.526 5.639 40.654 5.498 C 40.764 5.383 40.881 5.273 41.000 5.167 C 41.000 5.057 41.000 4.947 41.000 4.833 C 40.949 4.833 40.898 4.833 40.845 4.833 C 37.773 4.837 34.701 4.840 31.629 4.842 C 31.255 4.842 30.882 4.842 30.508 4.843 C 30.434 4.843 30.359 4.843 30.283 4.843 C 29.171 4.843 28.060 4.845 26.948 4.846 C 25.300 4.848 23.653 4.849 22.005 4.849 C 21.794 4.850 21.582 4.850 21.371 4.850 C 17.768 4.851 14.167 4.842 10.566 4.718 C 10.243 4.707 9.921 4.696 9.600 4.686 C 9.540 4.685 9.480 4.683 9.419 4.681 C 7.998 4.641 6.583 4.731 5.167 4.833 C 5.179 4.887 5.179 4.887 5.243 5.157 C 5.258 5.217 5.272 5.277 5.286 5.339 C 5.333 5.500 5.333 5.500 5.441 5.657 C 5.461 5.674 5.461 5.674 5.562 5.760 C 5.606 5.800 5.650 5.840 5.695 5.881 C 5.718 5.901 5.718 5.901 5.833 6.000 C 5.925 6.078 6.015 6.158 6.104 6.240 C 6.124 6.257 6.124 6.257 6.225 6.343 C 6.397 6.593 6.449 6.872 6.500 7.167 C 6.522 7.470 6.522 7.772 6.520 8.076 C 6.520 8.165 6.520 8.255 6.520 8.348 C 6.521 8.647 6.520 8.947 6.519 9.246 C 6.519 9.462 6.519 9.677 6.519 9.892 C 6.519 10.355 6.518 10.818 6.518 11.281 C 6.516 11.950 6.516 12.619 6.516 13.288 C 6.515 14.374 6.514 15.460 6.513 16.545 C 6.511 17.599 6.510 18.654 6.509 19.708 C 6.509 19.774 6.509 19.838 6.509 19.905 C 6.509 20.232 6.509 20.558 6.508 20.884 C 6.507 23.590 6.504 26.295 6.500 29.000 C 6.555 29.055 6.555 29.055 6.833 29.333 C 6.879 29.335 6.925 29.337 6.973 29.338 C 7.462 29.357 7.952 29.376 8.442 29.395 C 8.623 29.402 8.804 29.409 8.986 29.416 C 9.940 29.452 10.892 29.495 11.844 29.568 C 11.918 29.572 11.992 29.577 12.068 29.582 C 12.557 29.624 12.870 29.741 13.281 30.010 C 13.413 30.115 13.542 30.221 13.667 30.333 C 13.694 30.471 13.694 30.471 13.833 31.167 C 13.706 31.331 13.578 31.494 13.448 31.656 C 13.412 31.703 13.377 31.749 13.340 31.796 C 13.167 32.011 13.029 32.154 12.773 32.263 C 12.470 32.341 12.208 32.355 11.895 32.357 C 11.836 32.357 11.777 32.358 11.716 32.358 C 11.519 32.360 11.322 32.360 11.125 32.360 C 10.984 32.361 10.842 32.362 10.701 32.363 C 10.317 32.365 9.933 32.366 9.549 32.367 C 9.309 32.367 9.069 32.368 8.828 32.369 C 8.076 32.371 7.324 32.373 6.572 32.373 C 5.705 32.374 4.839 32.377 3.972 32.382 C 3.301 32.385 2.630 32.387 1.959 32.387 C 1.559 32.387 1.158 32.388 0.758 32.391 C 0.381 32.394 0.005 32.394 -0.372 32.393 C -0.510 32.393 -0.648 32.393 -0.785 32.395 C -1.817 32.407 -1.817 32.407 -2.262 32.228 C -2.678 31.986 -3.011 31.689 -3.333 31.333 C -3.333 31.058 -3.333 30.783 -3.333 30.500 C -3.178 30.364 -3.022 30.229 -2.865 30.094 C -2.821 30.055 -2.777 30.017 -2.733 29.978 C -2.438 29.727 -2.207 29.593 -1.833 29.500 C -1.507 29.471 -1.181 29.465 -0.854 29.459 C -0.661 29.454 -0.467 29.448 -0.274 29.442 C 0.030 29.434 0.334 29.427 0.638 29.421 C 0.932 29.414 1.227 29.405 1.521 29.396 C 1.566 29.396 1.566 29.396 1.795 29.392 C 1.881 29.389 1.966 29.387 2.053 29.384 C 2.128 29.382 2.202 29.380 2.279 29.379 C 2.570 29.319 2.758 29.168 3.000 29.000 C 3.008 26.015 3.014 23.029 3.017 20.044 C 3.018 19.692 3.018 19.340 3.018 18.987 C 3.018 18.952 3.018 18.952 3.018 18.775 C 3.020 17.639 3.023 16.502 3.026 15.366 C 3.029 14.200 3.031 13.035 3.031 11.869 C 3.032 11.150 3.033 10.431 3.036 9.711 C 3.038 9.218 3.038 8.725 3.038 8.232 C 3.038 7.947 3.038 7.663 3.040 7.378 C 3.041 7.069 3.041 6.761 3.040 6.452 C 3.040 6.407 3.040 6.407 3.043 6.180 C 3.042 6.097 3.042 6.014 3.041 5.928 C 3.041 5.857 3.041 5.786 3.041 5.713 C 3.000 5.500 3.000 5.500 2.667 5.000 C 2.007 5.000 1.347 5.000 0.667 5.000 C 0.337 4.725 0.007 4.450 -0.333 4.167 C -0.585 2.984 -0.714 1.876 -0.667 0.667 C -0.447 0.447 -0.227 0.227 0.000 0.000 Z" fill="#FFFFFF" transform="translate(16.833333333333332,90.66666666666667)"/>
  <path d="M 0.000 0.000 C 0.550 0.000 1.100 0.000 1.667 0.000 C 1.612 0.165 1.557 0.330 1.500 0.500 C 1.582 0.527 1.582 0.527 2.000 0.667 C 1.219 2.260 1.219 2.260 0.823 2.979 C 0.776 3.065 0.730 3.150 0.682 3.238 C 0.438 3.589 0.143 3.873 -0.167 4.167 C -0.162 4.228 -0.157 4.289 -0.151 4.352 C -0.128 4.641 -0.105 4.930 -0.083 5.219 C -0.075 5.324 -0.067 5.430 -0.058 5.539 C -0.011 6.197 -0.001 6.841 -0.021 7.500 C -0.032 8.030 -0.007 8.442 0.219 8.927 C 0.359 9.177 0.500 9.333 0.712 9.526 C 1.115 9.723 1.446 9.682 1.885 9.656 C 2.897 9.631 2.897 9.631 3.365 9.854 C 3.627 10.012 3.864 10.190 4.102 10.382 C 5.528 11.528 7.190 12.270 8.975 12.645 C 9.838 12.842 10.483 13.288 11.167 13.833 C 11.220 13.875 11.273 13.917 11.327 13.960 C 11.613 14.189 11.893 14.424 12.167 14.667 C 12.442 14.667 12.717 14.667 13.000 14.667 C 13.055 14.557 13.055 14.557 13.333 14.000 C 13.663 13.945 13.993 13.890 14.333 13.833 C 14.553 13.998 14.773 14.163 15.000 14.333 C 15.275 14.306 15.275 14.306 16.667 14.167 C 16.832 14.332 16.997 14.497 17.167 14.667 C 17.434 14.788 17.434 14.788 17.698 14.865 C 17.786 14.891 17.875 14.917 17.966 14.945 C 18.032 14.963 18.098 14.981 18.167 15.000 C 18.484 15.639 18.543 16.178 18.521 16.885 C 18.519 16.977 18.518 17.069 18.516 17.163 C 18.512 17.387 18.507 17.610 18.500 17.833 C 18.317 18.073 18.132 18.313 17.948 18.552 C 17.896 18.619 17.845 18.687 17.792 18.756 C 17.493 19.143 17.188 19.497 16.833 19.833 C 16.861 20.053 16.861 20.053 17.000 21.167 C 17.110 21.277 17.220 21.387 17.333 21.500 C 17.223 21.500 17.113 21.500 17.000 21.500 C 17.055 21.637 17.055 21.637 17.333 22.333 C 17.500 22.431 17.666 22.528 17.833 22.625 C 17.885 22.655 17.937 22.685 17.990 22.716 C 18.274 22.880 18.558 23.030 18.857 23.163 C 19.719 23.550 19.719 23.550 20.011 23.847 C 20.147 24.060 20.241 24.264 20.333 24.500 C 20.344 24.526 20.344 24.526 20.398 24.657 C 20.556 25.044 20.704 25.435 20.833 25.833 C 20.852 25.890 20.871 25.947 20.890 26.005 C 20.974 26.285 21.003 26.486 20.949 26.774 C 20.819 27.028 20.713 27.122 20.479 27.281 C 20.035 27.618 19.692 27.999 19.334 28.422 C 19.036 28.772 18.731 29.109 18.409 29.438 C 17.418 30.461 16.626 31.504 15.921 32.747 C 15.493 33.488 15.047 34.014 14.333 34.500 C 14.005 34.686 13.678 34.844 13.333 35.000 C 13.003 34.945 12.673 34.890 12.333 34.833 C 12.138 34.577 12.010 34.381 11.944 34.063 C 11.922 32.968 12.285 32.028 12.656 31.010 C 13.082 29.838 13.438 28.752 13.500 27.500 C 13.390 27.445 13.280 27.390 13.167 27.333 C 13.181 27.287 13.195 27.241 13.210 27.194 C 13.276 26.980 13.341 26.766 13.406 26.552 C 13.417 26.516 13.417 26.516 13.474 26.332 C 13.582 25.979 13.671 25.643 13.719 25.276 C 13.794 24.878 13.972 24.559 14.178 24.216 C 14.211 24.160 14.244 24.105 14.278 24.048 C 14.417 23.817 14.558 23.588 14.702 23.361 C 15.337 22.350 15.337 22.350 15.380 21.784 C 15.387 21.465 15.367 21.151 15.333 20.833 C 14.737 20.455 14.128 20.144 13.479 19.865 C 13.380 19.822 13.281 19.779 13.179 19.735 C 12.253 19.342 11.299 19.059 10.336 18.772 C 9.224 18.438 8.280 18.020 7.333 17.333 C 7.361 17.251 7.361 17.251 7.500 16.833 C 7.390 16.778 7.280 16.723 7.167 16.667 C 7.222 16.392 7.277 16.117 7.333 15.833 C 7.037 15.467 6.803 15.226 6.368 15.037 C 6.071 14.934 5.770 14.844 5.468 14.756 C 4.414 14.447 3.444 14.088 2.479 13.562 C 1.643 13.109 0.858 12.856 -0.062 12.656 C -0.875 12.477 -1.609 12.297 -2.267 11.761 C -2.865 11.206 -3.296 10.434 -3.557 9.665 C -3.966 8.195 -3.630 6.359 -3.271 4.916 C -2.865 3.492 -2.156 1.954 -1.091 0.911 C -0.741 0.590 -0.377 0.290 0.000 0.000 Z" fill="#FF6B3D" transform="translate(64.33333333333333,56.666666666666664)"/>
  <path d="M 0.000 0.000 C 0.990 0.000 1.980 0.000 3.000 0.000 C 4.339 0.998 5.040 2.230 5.833 3.667 C 5.776 4.567 5.626 5.337 5.312 6.188 C 4.968 7.128 4.968 7.128 5.017 7.506 C 5.060 7.691 5.104 7.875 5.150 8.059 C 5.167 8.333 5.145 8.428 5.038 8.671 C 4.921 8.904 4.792 9.130 4.663 9.357 C 4.519 9.615 4.446 9.840 4.406 10.135 C 4.376 10.345 4.357 10.468 4.231 10.638 C 4.147 10.719 4.061 10.798 3.972 10.874 C 3.719 11.104 3.531 11.390 3.333 11.667 C 3.333 11.832 3.333 11.997 3.333 12.167 C 3.303 12.205 3.273 12.243 3.242 12.283 C 2.901 12.724 2.612 13.185 2.333 13.667 C 2.223 13.667 2.113 13.667 2.000 13.667 C 1.890 14.052 1.780 14.437 1.667 14.833 C 1.502 14.833 1.337 14.833 1.167 14.833 C 1.122 14.926 1.077 15.019 1.031 15.115 C 0.433 16.299 0.433 16.299 0.052 16.552 C -0.020 16.590 -0.092 16.628 -0.167 16.667 C -0.558 16.625 -0.946 16.566 -1.333 16.500 C -1.373 16.493 -1.373 16.493 -1.577 16.459 C -2.929 16.221 -3.927 15.857 -5.000 15.000 C -5.097 14.928 -5.193 14.856 -5.290 14.785 C -5.816 14.380 -6.181 13.958 -6.523 13.389 C -6.663 13.172 -6.811 13.008 -7.000 12.833 C -7.280 12.813 -7.553 12.805 -7.833 12.833 C -8.002 12.941 -8.169 13.052 -8.333 13.167 C -8.563 13.195 -8.767 13.183 -9.000 13.167 C -9.110 12.782 -9.220 12.397 -9.333 12.000 C -9.084 11.255 -8.824 10.615 -8.363 9.974 C -8.023 9.470 -7.779 8.903 -7.518 8.356 C -7.477 8.272 -7.436 8.188 -7.394 8.101 C -7.359 8.026 -7.323 7.950 -7.286 7.872 C -7.160 7.654 -7.018 7.503 -6.833 7.333 C -6.087 7.314 -5.400 7.357 -4.667 7.500 C -4.392 7.280 -4.117 7.060 -3.833 6.833 C -3.448 6.833 -3.063 6.833 -2.667 6.833 C -2.777 6.668 -2.887 6.503 -3.000 6.333 C -2.835 6.223 -2.670 6.113 -2.500 6.000 C -2.472 5.913 -2.443 5.827 -2.414 5.738 C -2.052 4.682 -2.052 4.682 -1.667 4.271 C -1.270 3.829 -1.151 3.324 -1.006 2.761 C -0.920 2.429 -0.850 2.191 -0.654 1.904 C -0.500 1.667 -0.500 1.667 -0.468 1.363 C -0.471 1.260 -0.475 1.158 -0.479 1.052 C -0.482 0.948 -0.485 0.845 -0.488 0.738 C -0.492 0.659 -0.496 0.581 -0.500 0.500 C -0.335 0.335 -0.170 0.170 0.000 0.000 Z" fill="#FF6B3D" transform="translate(76.0,51.166666666666664)"/>
  <path d="M 0.000 0.000 C 0.330 0.000 0.660 0.000 1.000 0.000 C 1.028 0.137 1.028 0.137 1.167 0.833 C 1.662 0.888 2.157 0.943 2.667 1.000 C 2.901 1.271 3.121 1.545 3.333 1.833 C 3.376 1.891 3.419 1.950 3.463 2.010 C 4.264 3.129 4.264 3.129 4.378 3.739 C 4.417 4.220 4.388 4.688 4.333 5.167 C 4.168 5.277 4.003 5.387 3.833 5.500 C 3.558 5.445 3.283 5.390 3.000 5.333 C 2.835 5.113 2.670 4.893 2.500 4.667 C 2.500 4.557 2.500 4.447 2.500 4.333 C 2.225 4.388 1.950 4.443 1.667 4.500 C 1.561 5.762 1.877 6.946 2.167 8.167 C 2.225 8.167 2.283 8.167 2.342 8.167 C 3.117 8.167 3.892 8.167 4.667 8.167 C 4.612 8.497 4.557 8.827 4.500 9.167 C 4.225 9.387 3.950 9.607 3.667 9.833 C 3.275 9.788 2.888 9.732 2.500 9.667 C 2.460 9.660 2.460 9.660 2.256 9.626 C 0.904 9.388 -0.094 9.024 -1.167 8.167 C -1.263 8.095 -1.360 8.023 -1.457 7.952 C -1.983 7.546 -2.348 7.124 -2.690 6.555 C -2.830 6.339 -2.978 6.174 -3.167 6.000 C -3.447 5.980 -3.720 5.971 -4.000 6.000 C -4.169 6.108 -4.336 6.219 -4.500 6.333 C -4.730 6.362 -4.933 6.349 -5.167 6.333 C -5.222 6.141 -5.222 6.141 -5.500 5.167 C -5.250 4.422 -4.991 3.782 -4.529 3.141 C -4.189 2.637 -3.945 2.070 -3.684 1.523 C -3.644 1.439 -3.603 1.355 -3.561 1.268 C -3.525 1.193 -3.489 1.117 -3.452 1.039 C -3.326 0.821 -3.185 0.669 -3.000 0.500 C -2.254 0.480 -1.566 0.524 -0.833 0.667 C -0.558 0.447 -0.283 0.227 0.000 0.000 Z" fill="#FFFFFF" transform="translate(72.16666666666667,58.0)"/>
  <path d="M 0.000 0.000 C 0.580 -0.015 1.160 -0.025 1.740 -0.031 C 1.928 -0.033 2.116 -0.036 2.304 -0.040 C 3.310 -0.059 4.181 -0.029 5.121 0.351 C 5.438 0.535 5.642 0.738 5.890 1.007 C 5.890 1.337 5.890 1.667 5.890 2.007 C 5.677 2.172 5.677 2.172 5.390 2.341 C 5.110 2.377 5.110 2.377 4.798 2.369 C 4.769 2.369 4.769 2.369 4.622 2.367 C 4.496 2.365 4.369 2.363 4.242 2.360 C 3.888 2.351 3.533 2.349 3.178 2.346 C 3.102 2.345 3.025 2.344 2.947 2.343 C 2.102 2.336 1.258 2.358 0.413 2.381 C 0.145 2.389 -0.123 2.396 -0.392 2.402 C -1.125 2.421 -1.857 2.440 -2.590 2.461 C -3.047 2.474 -3.503 2.486 -3.960 2.497 C -4.131 2.501 -4.303 2.506 -4.475 2.512 C -4.712 2.519 -4.949 2.525 -5.187 2.530 C -5.256 2.533 -5.326 2.535 -5.398 2.538 C -5.865 2.545 -5.865 2.545 -6.101 2.432 C -6.240 2.339 -6.240 2.339 -6.443 2.174 C -6.276 1.174 -6.276 1.174 -6.058 0.861 C -5.817 0.630 -5.599 0.488 -5.280 0.395 C -3.575 0.000 -1.740 0.046 0.000 0.000 Z" fill="#FFFFFF" transform="translate(57.2764892578125,86.49273681640625)"/>
  <path d="M 0.000 0.000 C 0.388 0.174 0.754 0.341 1.045 0.661 C 1.364 1.114 1.623 1.630 1.688 2.184 C 1.708 2.569 1.694 2.949 1.667 3.333 C 1.392 3.388 1.117 3.443 0.833 3.500 C 0.403 3.027 0.068 2.577 -0.116 1.960 C -0.219 1.366 -0.191 0.766 -0.167 0.167 C -0.112 0.112 -0.057 0.057 0.000 0.000 Z" fill="#FFFFFF" transform="translate(78.33333333333333,65.83333333333333)"/>
</svg>
