<svg xmlns="http://www.w3.org/2000/svg" viewBox="45.3 59.2 81.5 98.9">
  <path d="M 0.000 0.000 C 0.105 -0.001 0.210 -0.002 0.318 -0.003 C 1.927 -0.007 3.369 0.209 4.896 0.719 C 4.981 0.747 5.067 0.775 5.155 0.804 C 6.550 1.277 7.832 1.935 8.927 2.938 C 8.982 3.001 9.036 3.064 9.092 3.129 C 10.444 4.678 13.009 5.266 14.881 5.950 C 15.541 6.191 16.201 6.434 16.860 6.678 C 16.930 6.703 17.000 6.729 17.072 6.756 C 17.971 7.089 18.856 7.437 19.719 7.856 C 19.782 7.887 19.846 7.918 19.911 7.949 C 19.963 7.975 20.015 8.002 20.069 8.028 C 20.625 8.248 21.142 8.296 21.733 8.300 C 21.811 8.301 21.889 8.302 21.969 8.303 C 22.137 8.306 22.306 8.307 22.475 8.309 C 22.746 8.312 23.016 8.316 23.286 8.320 C 24.055 8.332 24.824 8.341 25.593 8.350 C 27.771 8.376 29.912 8.452 32.075 8.712 C 32.941 8.814 33.811 8.866 34.682 8.904 C 34.870 8.912 35.057 8.923 35.245 8.935 C 36.972 9.045 36.972 9.045 37.683 8.726 C 38.188 8.463 38.645 8.134 39.073 7.760 C 39.775 7.198 40.541 6.913 41.427 6.771 C 41.874 6.729 42.313 6.737 42.760 6.771 C 43.103 7.308 43.377 7.838 43.594 8.438 C 44.499 8.459 45.365 8.404 46.260 8.271 C 46.790 8.478 47.235 8.720 47.613 9.149 C 48.731 10.580 48.731 10.580 48.796 10.998 C 48.845 11.579 48.812 12.033 48.573 12.572 C 48.203 13.316 47.779 14.107 47.099 14.607 C 46.545 14.909 45.902 15.049 45.294 15.199 C 44.806 15.320 44.401 15.443 43.969 15.704 C 43.230 16.094 42.396 16.004 41.583 15.990 C 41.410 15.989 41.236 15.987 41.062 15.986 C 40.087 15.976 39.185 15.891 38.230 15.692 C 37.547 15.575 36.946 15.656 36.274 15.789 C 35.082 16.022 33.890 16.174 32.681 16.275 C 32.607 16.282 32.532 16.288 32.455 16.294 C 32.070 16.327 31.685 16.358 31.299 16.389 C 30.479 16.454 29.659 16.524 28.838 16.595 C 28.798 16.598 28.798 16.598 28.591 16.616 C 27.497 16.712 26.407 16.825 25.318 16.968 C 25.256 16.976 25.195 16.983 25.131 16.992 C 24.510 17.073 23.890 17.158 23.270 17.249 C 21.285 17.531 19.647 17.293 17.729 16.750 C 17.539 16.698 17.349 16.645 17.159 16.593 C 15.744 16.201 14.334 15.791 12.925 15.376 C 11.538 14.968 10.148 14.574 8.755 14.188 C 8.584 14.140 8.413 14.093 8.242 14.045 C 8.158 14.022 8.075 13.999 7.989 13.975 C 7.522 13.845 7.056 13.712 6.590 13.575 C 6.318 13.495 6.045 13.415 5.772 13.337 C 5.649 13.301 5.527 13.264 5.404 13.227 C 4.562 12.971 3.801 12.895 2.927 12.938 C 2.982 13.268 3.037 13.597 3.094 13.938 C 3.805 14.409 4.532 14.676 5.333 14.948 C 5.458 14.991 5.582 15.034 5.706 15.077 C 5.828 15.119 5.950 15.161 6.072 15.204 C 6.132 15.224 6.191 15.245 6.252 15.266 C 6.518 15.358 6.783 15.444 7.055 15.519 C 7.142 15.543 7.229 15.568 7.318 15.593 C 7.392 15.612 7.467 15.631 7.543 15.650 C 7.875 15.834 8.052 16.127 8.260 16.438 C 8.207 21.288 8.207 21.288 7.692 23.622 C 7.419 24.875 7.270 26.132 7.135 27.406 C 7.125 27.508 7.114 27.610 7.103 27.715 C 7.042 28.289 6.984 28.863 6.927 29.438 C 6.541 29.882 6.541 29.882 6.272 30.013 C 5.961 30.107 5.713 30.111 5.396 30.043 C 5.264 30.010 5.133 29.976 5.001 29.941 C 4.138 29.742 3.351 29.767 2.475 29.861 C 2.239 29.885 2.003 29.906 1.766 29.925 C 0.816 30.013 -0.043 30.187 -0.906 30.604 C -0.961 30.659 -1.016 30.714 -1.073 30.771 C -1.073 31.046 -1.073 31.321 -1.073 31.604 C -1.012 31.606 -1.012 31.606 -0.704 31.617 C -0.244 31.633 0.217 31.649 0.678 31.666 C 0.875 31.673 1.073 31.680 1.271 31.687 C 2.550 31.731 3.820 31.806 5.094 31.938 C 5.094 31.993 5.094 32.047 5.094 32.104 C 4.324 32.104 3.554 32.104 2.760 32.104 C 2.706 32.269 2.651 32.434 2.594 32.604 C 2.510 32.634 2.426 32.664 2.340 32.695 C -0.899 33.866 -0.899 33.866 -1.633 34.642 C -1.959 35.035 -2.146 35.430 -2.240 35.938 C -2.282 36.615 -2.145 37.191 -1.847 37.797 C -1.574 38.281 -1.241 38.655 -0.763 38.942 C 0.217 39.455 1.317 39.703 2.379 39.990 C 3.336 40.248 4.217 40.530 5.104 40.979 C 6.855 41.848 8.790 41.905 10.714 41.788 C 11.596 41.718 12.473 41.584 13.346 41.449 C 14.100 41.333 14.827 41.228 15.594 41.271 C 16.059 41.665 16.327 42.043 16.573 42.594 C 16.846 43.192 17.168 43.549 17.683 43.952 C 17.995 44.147 18.252 44.260 18.623 44.283 C 18.846 44.287 19.068 44.285 19.292 44.281 C 19.369 44.280 19.446 44.280 19.526 44.279 C 20.090 44.273 20.090 44.273 20.344 44.134 C 21.007 43.731 21.469 43.280 21.851 42.599 C 22.343 41.679 22.779 40.725 22.781 39.665 C 22.775 39.533 22.769 39.402 22.760 39.271 C 22.758 39.202 22.755 39.133 22.752 39.063 C 22.717 38.462 22.615 37.913 22.299 37.393 C 22.146 37.180 21.985 36.980 21.812 36.781 C 21.760 36.720 21.708 36.659 21.654 36.597 C 21.167 36.086 20.595 35.814 19.927 35.604 C 19.431 35.465 18.928 35.356 18.425 35.249 C 18.098 35.179 17.771 35.106 17.445 35.033 C 17.280 34.997 17.116 34.961 16.951 34.924 C 15.044 34.503 13.172 33.987 11.300 33.433 C 10.018 33.053 8.739 32.703 7.427 32.438 C 7.372 32.273 7.317 32.108 7.260 31.938 C 7.151 31.882 7.041 31.828 6.927 31.771 C 7.257 31.606 7.587 31.441 7.927 31.271 C 9.073 31.450 10.197 31.701 11.323 31.978 C 11.394 31.995 11.465 32.013 11.537 32.031 C 12.056 32.158 12.575 32.288 13.094 32.417 C 13.680 32.563 14.267 32.708 14.854 32.853 C 14.926 32.871 14.998 32.888 15.072 32.907 C 16.286 33.205 17.506 33.473 18.731 33.719 C 20.010 33.978 21.068 34.269 22.083 35.119 C 22.875 35.820 23.781 36.667 24.188 37.669 C 24.457 38.665 24.247 40.054 24.033 41.056 C 23.648 42.414 22.893 43.685 22.253 44.935 C 21.625 46.166 21.070 47.407 20.592 48.704 C 20.226 49.683 19.769 50.608 19.297 51.539 C 18.911 52.301 18.534 53.067 18.166 53.839 C 18.082 54.015 17.998 54.191 17.913 54.368 C 17.459 55.316 17.459 55.316 17.235 55.788 C 17.067 56.142 16.898 56.495 16.728 56.848 C 16.701 56.905 16.674 56.961 16.646 57.019 C 16.284 57.764 15.896 58.477 15.395 59.140 C 15.146 59.479 15.029 59.762 14.967 60.179 C 14.941 60.433 14.928 60.683 14.927 60.938 C 14.961 60.941 14.961 60.941 15.133 60.960 C 18.277 61.316 18.277 61.316 19.143 61.922 C 19.851 62.464 20.556 63.059 20.948 63.875 C 21.134 64.450 21.195 65.007 21.094 65.604 C 20.974 65.974 20.806 66.279 20.594 66.604 C 20.543 66.687 20.492 66.769 20.439 66.853 C 19.933 67.563 19.253 68.003 18.482 68.390 C 17.526 68.805 16.474 68.749 15.451 68.739 C 15.135 68.736 14.820 68.738 14.504 68.740 C 13.974 68.742 13.444 68.739 12.914 68.734 C 12.307 68.729 11.701 68.731 11.094 68.736 C 10.567 68.741 10.040 68.742 9.513 68.739 C 9.201 68.737 8.889 68.737 8.577 68.740 C 7.227 68.753 6.101 68.647 4.888 67.999 C 4.331 67.678 3.806 67.320 3.436 66.787 C 3.036 66.072 2.940 65.245 2.927 64.438 C 2.967 63.060 3.361 61.903 3.973 60.685 C 4.199 60.221 4.401 59.745 4.604 59.271 C 4.623 59.226 4.623 59.226 4.722 59.002 C 5.001 58.353 5.246 57.696 5.484 57.032 C 5.717 56.385 5.959 55.742 6.203 55.099 C 6.222 55.048 6.222 55.048 6.320 54.792 C 6.459 54.427 6.598 54.062 6.737 53.697 C 7.566 51.523 7.566 51.523 7.952 50.453 C 8.216 49.721 8.492 48.994 8.781 48.271 C 8.824 48.163 8.866 48.055 8.908 47.947 C 8.950 47.843 8.991 47.739 9.033 47.635 C 9.069 47.545 9.104 47.454 9.141 47.361 C 9.261 47.104 9.261 47.104 9.439 46.838 C 9.594 46.604 9.594 46.604 9.626 46.337 C 9.623 46.250 9.618 46.163 9.615 46.073 C 9.611 45.985 9.609 45.896 9.606 45.805 C 9.602 45.739 9.598 45.673 9.594 45.604 C 9.398 45.486 9.259 45.437 9.030 45.415 C 8.941 45.414 8.851 45.413 8.759 45.412 C 8.656 45.411 8.554 45.410 8.448 45.408 C 8.334 45.407 8.220 45.407 8.106 45.406 C 7.986 45.405 7.865 45.403 7.745 45.402 C 7.485 45.399 7.225 45.396 6.965 45.394 C 6.549 45.391 6.132 45.386 5.716 45.381 C 4.899 45.372 4.083 45.364 3.267 45.356 C 2.608 45.350 1.949 45.343 1.290 45.337 C 1.218 45.336 1.147 45.335 1.073 45.334 C -0.133 45.322 -1.340 45.306 -2.546 45.288 C -3.192 45.278 -3.838 45.270 -4.484 45.264 C -5.048 45.260 -5.613 45.251 -6.178 45.240 C -6.379 45.236 -6.581 45.234 -6.782 45.233 C -7.756 45.230 -8.567 45.192 -9.426 44.699 C -9.647 44.564 -9.861 44.421 -10.073 44.271 C -10.114 44.242 -10.114 44.242 -10.322 44.096 C -11.252 43.413 -11.987 42.542 -12.475 41.498 C -13.562 38.970 -13.193 35.879 -12.879 33.219 C -12.844 32.927 -12.807 32.635 -12.771 32.344 C -12.764 32.288 -12.757 32.233 -12.750 32.176 C -12.580 30.822 -12.356 29.488 -12.078 28.153 C -11.914 27.350 -11.813 26.556 -11.755 25.740 C -11.675 24.641 -11.557 23.568 -11.333 22.490 C -11.100 21.357 -10.959 20.222 -10.833 19.073 C -10.640 17.312 -10.414 15.559 -10.165 13.806 C -10.020 12.781 -9.882 11.756 -9.760 10.729 C -9.739 10.554 -9.718 10.379 -9.697 10.204 C -9.690 10.146 -9.683 10.089 -9.675 10.030 C -9.662 9.915 -9.648 9.800 -9.634 9.684 C -9.600 9.408 -9.568 9.130 -9.537 8.853 C -9.335 7.049 -9.027 5.228 -7.948 3.719 C -7.890 3.636 -7.832 3.553 -7.772 3.468 C -6.936 2.310 -6.006 1.614 -4.740 0.969 C -4.645 0.920 -4.550 0.872 -4.452 0.822 C -2.993 0.118 -1.599 0.013 0.000 0.000 Z" fill="#FFFFFF" transform="translate(61.90625,86.22916666666667)"/>
  <path d="M 0.000 0.000 C 0.477 -0.070 0.909 -0.047 1.361 0.125 C 1.566 0.208 1.770 0.296 1.973 0.385 C 2.375 0.558 2.766 0.700 3.191 0.807 C 4.332 1.096 5.065 1.460 5.937 2.250 C 6.923 3.110 8.129 3.530 9.333 4.000 C 9.482 4.059 9.632 4.119 9.781 4.179 C 9.974 4.256 10.167 4.333 10.361 4.409 C 10.977 4.652 11.582 4.920 12.188 5.188 C 13.532 5.782 14.889 6.346 16.248 6.908 C 17.459 7.409 18.659 7.930 19.849 8.479 C 20.650 8.848 21.457 9.198 22.274 9.530 C 22.664 9.690 23.047 9.853 23.424 10.040 C 24.357 10.498 24.357 10.498 24.814 10.504 C 25.054 10.465 25.272 10.416 25.500 10.333 C 25.529 10.296 25.558 10.258 25.588 10.220 C 25.630 10.166 25.671 10.113 25.714 10.058 C 25.738 10.028 25.738 10.028 25.856 9.876 C 25.960 9.742 26.065 9.607 26.170 9.473 C 26.437 9.130 26.702 8.787 26.963 8.441 C 27.916 7.179 28.899 6.056 30.333 5.333 C 30.727 5.167 31.088 5.140 31.510 5.146 C 31.575 5.147 31.640 5.147 31.706 5.148 C 31.915 5.152 32.124 5.159 32.333 5.167 C 32.405 5.169 32.476 5.171 32.550 5.173 C 33.264 5.199 33.934 5.234 34.562 5.604 C 35.094 6.017 35.405 6.554 35.667 7.167 C 35.971 8.111 35.958 9.190 35.833 10.167 C 35.568 11.184 34.867 12.037 34.265 12.878 C 33.606 13.807 33.088 14.717 32.840 15.839 C 32.417 17.722 31.721 19.110 30.427 20.560 C 29.750 21.290 28.942 21.892 27.997 22.227 C 27.198 22.453 26.248 22.462 25.441 22.283 C 24.887 22.122 24.361 21.896 23.833 21.667 C 23.785 21.646 23.785 21.646 23.539 21.540 C 23.488 21.518 23.437 21.496 23.385 21.473 C 23.280 21.428 23.176 21.383 23.072 21.338 C 22.817 21.228 22.563 21.117 22.310 21.003 C 21.346 20.577 20.578 20.463 19.532 20.550 C 19.285 20.560 19.076 20.551 18.833 20.500 C 18.572 20.361 18.342 20.199 18.102 20.025 C 17.613 19.677 17.082 19.405 16.552 19.125 C 16.492 19.093 16.432 19.061 16.370 19.028 C 15.013 18.310 13.608 17.719 12.186 17.143 C 11.702 16.947 11.221 16.744 10.740 16.542 C 9.688 16.101 8.629 15.678 7.566 15.266 C 3.293 13.612 3.293 13.612 1.427 12.354 C 0.769 11.916 0.105 11.785 -0.667 11.667 C -0.859 11.636 -1.051 11.605 -1.244 11.574 C -1.773 11.489 -2.303 11.410 -2.833 11.333 C -2.998 11.168 -3.163 11.003 -3.333 10.833 C -3.276 10.001 -2.971 9.391 -2.570 8.681 C -2.395 8.370 -2.228 8.055 -2.059 7.740 C -2.042 7.709 -2.042 7.709 -1.957 7.549 C -1.213 6.154 -0.637 4.774 -0.344 3.219 C -0.333 3.161 -0.322 3.103 -0.310 3.044 C -0.136 2.103 -0.136 2.103 -0.245 1.735 C -0.274 1.657 -0.303 1.580 -0.333 1.500 C -0.350 1.196 -0.350 1.196 -0.344 0.885 C -0.342 0.782 -0.341 0.678 -0.339 0.571 C -0.337 0.492 -0.335 0.414 -0.333 0.333 C -0.223 0.223 -0.113 0.113 0.000 0.000 Z" fill="#FFFFFF" transform="translate(87.83333333333333,123.66666666666667)"/>
  <path d="M 0.000 0.000 C 0.557 0.241 1.057 0.544 1.552 0.894 C 1.629 0.949 1.707 1.003 1.787 1.059 C 3.242 2.106 4.208 3.268 4.951 4.891 C 5.877 6.970 6.190 9.002 5.963 11.269 C 5.748 13.144 5.045 14.871 3.924 16.393 C 2.622 18.062 0.958 19.052 -0.948 19.895 C -1.031 19.931 -1.114 19.969 -1.199 20.007 C -2.610 20.622 -4.008 20.819 -5.541 20.687 C -7.264 20.477 -9.152 19.663 -10.572 18.661 C -10.771 18.508 -10.962 18.348 -11.148 18.179 C -11.289 18.055 -11.434 17.939 -11.583 17.824 C -12.758 16.896 -13.605 15.683 -14.184 14.306 C -14.983 12.293 -15.200 10.211 -14.948 8.061 C -14.690 6.340 -14.030 4.761 -12.948 3.395 C -12.891 3.322 -12.835 3.250 -12.776 3.175 C -11.914 2.100 -10.961 1.269 -9.781 0.561 C -9.716 0.521 -9.651 0.481 -9.583 0.440 C -6.741 -1.265 -3.035 -1.138 0.000 0.000 Z" fill="#FFFFFF" transform="translate(67.44816080729167,63.438883463541664)"/>
  <path d="M 0.000 0.000 C 0.440 0.055 0.880 0.110 1.333 0.167 C 1.397 0.245 1.460 0.324 1.526 0.404 C 1.687 0.564 1.806 0.657 2.021 0.733 C 2.263 0.784 2.506 0.825 2.750 0.865 C 3.879 1.075 4.964 1.396 6.061 1.733 C 7.516 2.179 8.960 2.596 10.458 2.875 C 10.525 2.887 10.593 2.900 10.662 2.913 C 10.794 2.938 10.927 2.962 11.060 2.987 C 11.124 2.999 11.188 3.011 11.254 3.023 C 11.317 3.035 11.379 3.047 11.444 3.059 C 12.046 3.172 12.642 3.307 13.236 3.459 C 13.388 3.498 13.540 3.535 13.693 3.572 C 14.583 3.808 15.329 4.279 15.986 4.923 C 16.391 5.361 16.670 5.760 16.826 6.343 C 17.027 7.309 17.085 8.297 16.814 9.254 C 16.479 10.257 15.987 11.258 15.196 11.975 C 14.876 12.243 14.553 12.499 14.167 12.667 C 13.583 12.767 12.893 12.777 12.322 12.617 C 11.737 12.385 11.289 11.987 10.875 11.521 C 10.558 11.111 10.320 10.690 10.113 10.216 C 9.993 9.986 9.858 9.839 9.667 9.667 C 8.678 9.737 7.697 9.825 6.716 9.964 C 4.382 10.292 1.938 10.418 -0.333 9.667 C -0.745 9.489 -1.135 9.275 -1.526 9.056 C -2.298 8.641 -3.092 8.444 -3.938 8.240 C -6.434 7.629 -6.434 7.629 -7.396 6.803 C -7.577 6.600 -7.704 6.406 -7.833 6.167 C -7.885 6.079 -7.936 5.992 -7.988 5.902 C -8.195 5.498 -8.345 5.121 -8.350 4.664 C -8.322 4.119 -8.187 3.623 -7.917 3.146 C -7.337 2.391 -6.541 1.889 -5.670 1.526 C -4.901 1.214 -4.118 0.936 -3.333 0.667 C -3.278 0.557 -3.223 0.447 -3.167 0.333 C -2.122 0.333 -1.077 0.333 0.000 0.333 C 0.000 0.223 0.000 0.113 0.000 0.000 Z" fill="#FF6B3D" transform="translate(67.83333333333333,118.0)"/>
</svg>
