<svg xmlns="http://www.w3.org/2000/svg" viewBox="0 0 159 53">
  <path d="M5.8,52.0 C-19.0,51.3 3.6,49.3 3.6,48.0 C3.6,46.7 1.9,45.4 6.0,44.4 C10.1,43.4 26.6,44.0 28.4,42.0 C30.2,40.0 18.5,36.0 17.0,32.2 C15.5,28.4 17.9,21.1 19.1,19.0 C20.3,16.9 19.7,21.2 24.0,19.9 C28.3,18.6 39.5,12.9 45.0,11.2 C50.5,9.4 50.0,8.6 57.0,9.5 C64.0,10.4 81.3,16.0 87.0,16.8 C92.7,17.6 89.3,12.9 91.0,14.2 C92.7,15.6 95.0,24.9 97.0,24.7 C99.0,24.6 99.7,15.4 103.0,13.3 C106.3,11.2 113.4,10.7 117.0,12.3 C120.6,13.9 124.1,18.9 124.4,23.0 C124.8,27.1 114.4,33.8 119.0,37.0 C123.6,40.2 145.9,40.4 152.0,42.1 C158.1,43.7 155.3,45.3 155.4,47.0 C155.4,48.7 177.2,51.2 152.3,52.0 C127.4,52.8 30.5,52.7 5.8,52.0 Z M121.2,52.0 C124.5,49.2 93.2,37.7 84.0,34.9 C74.8,32.2 72.0,36.1 66.0,35.4 C60.0,34.8 50.9,31.5 48.0,31.2 C45.1,31.0 46.0,32.2 48.8,34.0 C51.6,35.8 61.9,39.9 65.0,42.2 C68.1,44.5 67.4,46.4 67.3,48.0 C67.2,49.6 55.3,51.3 64.3,52.0 C73.3,52.7 118.0,54.8 121.2,52.0 Z" fill="#FFFFFF"/>
  <path d="M23.0,20.0 C17.9,21.3 21.7,18.3 22.7,17.0 C23.7,15.7 24.8,14.2 29.0,12.3 C33.2,10.4 41.0,6.5 48.0,5.6 C55.0,4.7 64.3,5.1 71.0,6.9 C77.7,8.6 91.5,15.6 88.5,16.0 C85.5,16.4 63.9,8.8 53.0,9.5 C42.1,10.2 28.1,18.8 23.0,20.0 Z" fill="#FF6B3D"/>
</svg>
