<svg xmlns="http://www.w3.org/2000/svg" viewBox="-3.0 -3.0 130.8 163.0">
  <path d="M 0.000 0.000 C 0.325 0.047 0.567 0.098 0.839 0.285 C 1.110 0.533 1.299 0.745 1.434 1.091 C 1.510 1.379 1.570 1.666 1.625 1.958 C 1.646 2.059 1.667 2.159 1.688 2.262 C 1.739 2.508 1.787 2.754 1.833 3.000 C 1.558 3.000 1.283 3.000 1.000 3.000 C 1.004 3.065 1.009 3.131 1.014 3.198 C 1.401 8.801 1.401 8.801 1.281 10.906 C 1.279 10.941 1.279 10.941 1.270 11.120 C 1.232 11.765 1.168 12.376 1.000 13.000 C 0.835 12.945 0.670 12.890 0.500 12.833 C 0.445 11.678 0.390 10.523 0.333 9.333 C 0.113 9.278 -0.107 9.223 -0.333 9.167 C -0.482 9.337 -0.576 9.462 -0.667 9.667 C -0.717 10.001 -0.713 10.333 -0.712 10.670 C -0.715 10.878 -0.718 11.086 -0.721 11.293 C -0.723 11.404 -0.724 11.513 -0.725 11.627 C -0.747 13.577 -0.880 15.474 -1.167 17.406 C -1.462 19.413 -1.625 21.389 -1.659 23.417 C -1.664 23.739 -1.674 24.061 -1.686 24.384 C -1.722 25.334 -1.748 26.155 -1.346 27.029 C -1.047 27.704 -1.100 28.443 -1.167 29.167 C -1.188 29.304 -1.211 29.442 -1.235 29.579 C -1.405 30.573 -1.405 30.573 -1.278 31.034 C -1.164 31.325 -1.028 31.602 -0.885 31.880 C -0.540 32.555 -0.281 33.241 -0.030 33.955 C 0.408 35.192 0.900 36.391 1.448 37.583 C 1.898 38.563 2.323 39.534 2.677 40.553 C 2.868 41.107 3.077 41.653 3.292 42.198 C 3.312 42.250 3.333 42.302 3.354 42.355 C 3.753 43.362 4.228 44.327 4.729 45.287 C 5.229 46.248 5.362 47.024 5.417 48.104 C 5.470 49.130 5.564 50.143 5.667 51.167 C -9.238 51.167 -24.143 51.167 -39.500 51.167 C -39.667 49.667 -39.667 49.667 -39.560 49.221 C -39.506 49.104 -39.448 48.988 -39.385 48.875 C -39.354 48.813 -39.323 48.751 -39.291 48.687 C -39.199 48.510 -39.101 48.338 -39.000 48.167 C -38.952 48.082 -38.903 47.998 -38.854 47.911 C -38.524 47.429 -38.085 47.120 -37.569 46.863 C -36.809 46.539 -35.975 46.581 -35.167 46.667 C -35.045 46.690 -34.925 46.714 -34.804 46.742 C -34.330 46.844 -33.907 46.904 -33.434 46.764 C -33.106 46.640 -32.785 46.502 -32.464 46.361 C -31.094 45.758 -29.662 45.381 -28.223 44.982 C -28.175 44.969 -28.175 44.969 -27.933 44.901 C -27.741 44.848 -27.549 44.795 -27.358 44.742 C -26.593 44.530 -25.835 44.299 -25.081 44.053 C -24.395 43.835 -23.710 43.712 -22.995 43.625 C -22.506 43.565 -22.110 43.440 -21.696 43.167 C -21.239 42.777 -20.943 42.285 -20.728 41.727 C -20.647 41.471 -20.572 41.215 -20.498 40.956 C -20.033 39.345 -19.340 37.825 -18.647 36.302 C -18.563 36.116 -18.479 35.929 -18.395 35.742 C -18.261 35.444 -18.125 35.146 -17.988 34.848 C -17.937 34.737 -17.887 34.626 -17.836 34.515 C -17.556 33.896 -17.256 33.354 -16.803 32.842 C -16.663 32.661 -16.606 32.538 -16.559 32.317 C -16.550 32.209 -16.541 32.101 -16.531 31.990 C -16.520 31.881 -16.509 31.773 -16.497 31.661 C -16.500 31.368 -16.547 31.143 -16.625 30.864 C -16.718 30.423 -16.704 29.970 -16.708 29.521 C -16.710 29.471 -16.710 29.471 -16.719 29.218 C -16.724 28.571 -16.619 28.113 -16.301 27.547 C -16.136 27.285 -15.972 27.049 -15.771 26.812 C -15.735 26.771 -15.700 26.729 -15.663 26.686 C -15.441 26.433 -15.209 26.229 -14.938 26.031 C -14.278 25.540 -13.817 24.822 -13.333 24.167 C -13.324 23.986 -13.318 23.806 -13.312 23.625 C -13.309 23.524 -13.305 23.424 -13.301 23.320 C -13.331 23.023 -13.358 22.935 -13.500 22.694 C -13.697 22.314 -13.709 21.995 -13.700 21.573 C -13.702 21.426 -13.703 21.279 -13.705 21.132 C -13.705 21.056 -13.705 20.980 -13.706 20.901 C -13.718 19.744 -13.736 18.729 -14.333 17.708 C -14.379 17.639 -14.425 17.570 -14.471 17.499 C -14.881 16.868 -14.951 16.274 -14.992 15.538 C -15.017 14.921 -15.010 14.304 -15.000 13.688 C -14.995 13.410 -14.992 13.133 -14.990 12.855 C -14.988 12.793 -14.987 12.731 -14.985 12.668 C -14.982 12.301 -15.031 12.008 -15.167 11.667 C -16.109 11.724 -16.723 11.992 -17.500 12.500 C -17.555 12.775 -17.610 13.050 -17.667 13.333 C -17.614 13.431 -17.562 13.528 -17.508 13.628 C -17.099 14.402 -16.742 15.181 -16.458 16.010 C -16.431 16.087 -16.404 16.163 -16.376 16.241 C -15.951 17.535 -15.976 18.819 -16.125 20.156 C -16.133 20.229 -16.140 20.302 -16.148 20.377 C -16.237 21.210 -16.335 22.037 -16.573 22.844 C -16.591 22.906 -16.610 22.969 -16.628 23.033 C -16.776 23.465 -17.000 23.703 -17.333 24.000 C -17.645 23.995 -17.877 23.959 -18.167 23.833 C -18.431 23.619 -18.659 23.369 -18.890 23.119 C -19.188 22.802 -19.461 22.570 -19.844 22.354 C -20.548 21.911 -20.917 21.200 -21.333 20.500 C -21.376 20.428 -21.419 20.356 -21.464 20.281 C -21.703 19.879 -21.937 19.475 -22.170 19.070 C -22.407 18.657 -22.651 18.249 -22.898 17.842 C -25.626 13.334 -25.626 13.334 -25.709 11.614 C -25.701 10.873 -25.528 10.148 -25.167 9.500 C -24.632 8.619 -24.029 8.031 -23.188 7.448 C -23.077 7.369 -22.967 7.291 -22.857 7.212 C -21.856 6.501 -20.834 5.819 -19.807 5.145 C -19.426 4.895 -19.046 4.642 -18.667 4.388 C -18.612 4.351 -18.557 4.314 -18.500 4.276 C -18.067 3.986 -18.067 3.986 -17.859 3.846 C -17.568 3.651 -17.276 3.457 -16.982 3.265 C -16.882 3.199 -16.782 3.132 -16.683 3.065 C -15.789 2.457 -14.860 2.029 -13.853 1.639 C -13.605 1.542 -13.358 1.441 -13.111 1.340 C -12.066 0.924 -11.122 0.703 -10.000 0.667 C -9.956 0.665 -9.956 0.665 -9.736 0.656 C -9.142 0.633 -8.548 0.621 -7.954 0.618 C -7.748 0.616 -7.542 0.612 -7.336 0.607 C -5.344 0.560 -5.344 0.560 -4.562 0.953 C -4.038 1.248 -3.677 1.626 -3.365 2.135 C -3.317 2.208 -3.270 2.282 -3.221 2.357 C -2.742 3.112 -2.321 3.837 -2.271 4.750 C -2.293 5.306 -2.483 5.730 -2.722 6.226 C -2.881 6.617 -2.871 6.916 -2.833 7.333 C -2.558 7.333 -2.283 7.333 -2.000 7.333 C -1.864 7.118 -1.729 6.903 -1.594 6.688 C -1.574 6.657 -1.574 6.657 -1.478 6.503 C -1.441 6.444 -1.403 6.385 -1.365 6.324 C -1.331 6.270 -1.297 6.216 -1.262 6.160 C -0.995 5.712 -0.943 5.353 -0.927 4.833 C -0.920 4.216 -0.997 3.723 -1.290 3.176 C -1.839 2.274 -2.552 1.537 -3.333 0.833 C -3.333 0.668 -3.333 0.503 -3.333 0.333 C -3.003 0.278 -2.673 0.223 -2.333 0.167 C -1.697 0.570 -1.129 0.988 -0.575 1.497 C -0.286 1.756 -0.052 1.903 0.333 2.000 C 0.309 1.926 0.285 1.851 0.260 1.774 C 0.076 1.173 -0.052 0.634 0.000 0.000 Z" fill="#FFFFFF" transform="translate(83.5,105.83333333333333)"/>
  <path d="M 0.000 0.000 C 0.545 0.525 1.041 1.065 1.500 1.667 C 1.569 2.062 1.589 2.441 1.500 2.833 C 1.381 3.085 1.227 3.306 1.065 3.532 C 1.043 3.564 1.043 3.564 0.929 3.728 C 0.788 3.931 0.644 4.132 0.500 4.333 C 0.455 4.396 0.411 4.460 0.364 4.524 C 0.049 4.967 -0.274 5.402 -0.604 5.833 C -0.654 5.899 -0.704 5.964 -0.756 6.031 C -1.602 7.126 -2.462 7.921 -3.618 8.687 C -3.941 8.906 -4.237 9.150 -4.531 9.406 C -4.557 9.429 -4.557 9.429 -4.689 9.543 C -5.071 9.887 -5.401 10.266 -5.734 10.658 C -6.591 11.665 -6.591 11.665 -7.021 11.847 C -7.288 11.933 -7.553 11.980 -7.833 12.000 C -7.871 12.145 -7.905 12.291 -7.938 12.438 C -7.957 12.519 -7.976 12.600 -7.996 12.684 C -8.000 12.992 -7.961 13.138 -7.857 13.420 C -7.686 13.896 -7.592 14.363 -7.512 14.860 C -7.499 14.938 -7.486 15.017 -7.473 15.097 C -7.447 15.262 -7.421 15.426 -7.395 15.590 C -7.179 16.937 -6.926 18.223 -6.489 19.517 C -6.317 20.031 -6.199 20.553 -6.083 21.083 C -5.925 21.802 -5.741 22.506 -5.521 23.208 C -5.493 23.296 -5.466 23.384 -5.437 23.475 C -5.379 23.661 -5.320 23.847 -5.261 24.033 C -5.085 24.594 -4.909 25.155 -4.740 25.719 C -4.722 25.778 -4.704 25.837 -4.686 25.898 C -4.385 26.906 -4.166 27.918 -3.998 28.956 C -3.909 29.490 -3.812 29.961 -3.565 30.445 C -3.500 30.667 -3.500 30.667 -3.500 31.500 C -5.645 31.500 -7.790 31.500 -10.000 31.500 C -10.055 31.273 -10.055 31.273 -10.333 30.125 C -10.663 28.784 -11.034 27.459 -11.422 26.134 C -11.846 24.688 -12.248 23.253 -12.521 21.771 C -12.742 20.575 -13.015 19.403 -13.333 18.229 C -13.353 18.154 -13.373 18.079 -13.394 18.002 C -13.686 16.911 -14.061 15.873 -14.500 14.833 C -14.574 14.828 -14.647 14.822 -14.723 14.816 C -16.177 14.695 -17.507 14.525 -18.863 13.961 C -20.122 13.446 -21.300 13.486 -22.628 13.611 C -22.893 13.636 -23.159 13.659 -23.425 13.682 C -23.988 13.731 -24.552 13.782 -25.115 13.833 C -25.770 13.893 -26.425 13.951 -27.080 14.008 C -27.341 14.031 -27.601 14.055 -27.861 14.080 C -28.022 14.094 -28.183 14.108 -28.344 14.122 C -28.415 14.129 -28.486 14.136 -28.559 14.143 C -29.065 14.185 -29.508 14.122 -30.000 14.000 C -30.257 13.740 -30.477 13.479 -30.667 13.167 C -30.767 12.779 -30.810 12.399 -30.833 12.000 C -30.657 11.630 -30.455 11.292 -30.167 11.000 C -29.956 10.857 -29.735 10.757 -29.501 10.658 C -29.435 10.630 -29.370 10.602 -29.302 10.573 C -28.524 10.254 -27.718 10.091 -26.896 9.927 C -26.730 9.893 -26.564 9.858 -26.399 9.823 C -26.054 9.751 -25.709 9.680 -25.363 9.609 C -24.568 9.446 -23.774 9.277 -22.981 9.106 C -22.735 9.053 -22.488 9.002 -22.242 8.950 C -21.521 8.797 -20.839 8.644 -20.167 8.333 C -20.112 8.058 -20.057 7.783 -20.000 7.500 C -20.076 7.438 -20.153 7.375 -20.232 7.311 C -20.840 6.806 -21.372 6.314 -21.833 5.667 C -21.833 5.392 -21.833 5.117 -21.833 4.833 C -21.168 4.664 -20.595 4.675 -19.925 4.765 C -19.227 4.856 -18.536 4.848 -17.833 4.833 C -17.613 4.998 -17.393 5.163 -17.167 5.333 C -17.167 5.553 -17.167 5.773 -17.167 6.000 C -17.717 6.165 -18.267 6.330 -18.833 6.500 C -19.167 7.000 -19.167 7.000 -19.188 7.281 C -19.181 7.354 -19.174 7.426 -19.167 7.500 C -18.215 7.557 -18.215 7.557 -17.802 7.385 C -17.517 7.222 -17.378 7.008 -17.208 6.729 C -17.137 6.598 -17.067 6.466 -17.000 6.333 C -16.899 6.339 -16.797 6.345 -16.693 6.351 C -14.557 6.433 -12.395 5.996 -10.500 5.000 C -8.929 4.153 -7.406 3.221 -5.896 2.271 C -1.964 -0.203 -1.964 -0.203 0.000 0.000 Z" fill="#FFFFFF" transform="translate(123.16666666666667,125.5)"/>
  <path d="M 0.000 0.000 C 0.308 0.110 0.513 0.443 0.728 0.684 C 0.780 0.742 0.833 0.800 0.888 0.860 C 1.224 1.238 1.458 1.596 1.665 2.059 C 1.582 2.664 1.421 3.101 1.071 3.601 C 1.027 3.665 0.983 3.729 0.938 3.795 C 0.562 4.331 0.138 4.813 -0.305 5.293 C -0.780 5.812 -1.193 6.365 -1.606 6.934 C -2.234 7.786 -2.796 8.428 -3.732 8.949 C -4.667 9.472 -5.334 9.957 -5.899 10.881 C -6.183 11.372 -6.435 11.876 -6.668 12.392 C -6.888 12.282 -7.108 12.172 -7.335 12.059 C -7.445 12.086 -7.445 12.086 -8.002 12.225 C -7.947 12.336 -7.892 12.446 -7.835 12.559 C -7.615 12.614 -7.395 12.669 -7.168 12.725 C -7.245 13.183 -7.348 13.597 -7.522 14.028 C -7.712 14.597 -7.671 15.090 -7.553 15.668 C -7.381 16.424 -7.171 17.171 -6.964 17.919 C -6.824 18.428 -6.699 18.941 -6.575 19.455 C -6.420 20.088 -6.241 20.705 -6.026 21.321 C -5.865 21.787 -5.728 22.257 -5.600 22.733 C -5.579 22.812 -5.557 22.892 -5.535 22.973 C -5.294 23.871 -5.069 24.772 -4.846 25.673 C -4.780 25.937 -4.715 26.200 -4.649 26.464 C -4.606 26.638 -4.562 26.812 -4.519 26.987 C -4.391 27.504 -4.260 28.020 -4.128 28.537 C -4.083 28.715 -4.037 28.893 -3.992 29.071 C -3.951 29.229 -3.910 29.387 -3.869 29.545 C -3.697 30.221 -3.602 30.859 -3.502 31.559 C -7.297 31.559 -11.092 31.559 -15.002 31.559 C -15.002 23.089 -15.002 14.619 -15.002 5.892 C -14.644 5.865 -14.644 5.865 -12.835 5.726 C -11.089 5.185 -9.566 4.312 -7.980 3.420 C -6.215 2.428 -4.422 1.485 -2.586 0.630 C -2.441 0.563 -2.297 0.494 -2.154 0.425 C -0.813 -0.218 -0.813 -0.218 0.000 0.000 Z" fill="#FFFFFF" transform="translate(15.001749674479166,125.44120279947917)"/>
  <path d="M 0.000 0.000 C 0.037 0.009 0.037 0.009 0.224 0.057 C 1.962 0.505 3.136 1.192 4.417 2.448 C 5.123 3.157 5.698 3.876 6.112 4.794 C 6.203 4.991 6.304 5.181 6.407 5.372 C 6.933 6.353 7.293 7.358 7.621 8.420 C 7.697 8.642 7.788 8.849 7.885 9.062 C 8.074 9.527 8.060 9.934 8.010 10.427 C 8.002 10.514 7.993 10.602 7.984 10.692 C 7.804 12.211 7.098 13.456 6.216 14.687 C 5.136 16.127 3.658 16.846 2.046 17.564 C 1.857 17.649 1.673 17.740 1.488 17.831 C 0.415 18.334 -0.574 18.416 -1.750 18.399 C -2.041 18.396 -2.332 18.399 -2.623 18.404 C -4.109 18.407 -5.355 18.091 -6.654 17.369 C -7.533 16.847 -8.330 16.157 -9.098 15.489 C -9.226 15.379 -9.356 15.272 -9.489 15.170 C -9.726 14.972 -9.908 14.783 -10.034 14.497 C -10.193 14.062 -10.304 13.615 -10.417 13.167 C -10.452 13.034 -10.488 12.901 -10.524 12.768 C -11.097 10.616 -11.311 8.141 -10.772 5.956 C -10.507 5.048 -10.157 4.207 -9.578 3.454 C -9.470 3.315 -9.370 3.171 -9.269 3.026 C -8.531 2.020 -7.415 1.204 -6.302 0.646 C -5.449 0.272 -4.538 0.031 -3.635 -0.188 C -3.562 -0.206 -3.489 -0.225 -3.413 -0.245 C -2.236 -0.521 -1.146 -0.292 0.000 0.000 Z" fill="#FFFFFF" transform="translate(79.80208333333333,84.6875)"/>
  <path d="M 0.000 0.000 C 0.137 0.028 0.137 0.028 0.833 0.167 C 0.952 0.364 1.071 0.562 1.189 0.760 C 1.284 0.918 1.380 1.074 1.478 1.229 C 1.523 1.301 1.568 1.373 1.615 1.448 C 1.657 1.514 1.698 1.580 1.742 1.648 C 1.833 1.833 1.833 1.833 1.833 2.167 C 1.971 2.194 1.971 2.194 2.667 2.333 C 2.695 2.231 2.723 2.128 2.753 2.023 C 3.069 0.947 3.069 0.947 3.348 0.622 C 3.506 0.508 3.655 0.412 3.833 0.333 C 4.462 0.273 5.062 0.248 5.653 0.504 C 7.751 1.547 9.281 3.382 10.556 5.291 C 10.855 5.743 11.150 6.198 11.444 6.654 C 11.633 6.948 11.825 7.240 12.018 7.531 C 12.619 8.441 13.124 9.376 13.597 10.358 C 13.778 10.730 13.978 11.085 14.191 11.439 C 14.570 12.074 14.770 12.609 14.843 13.346 C 14.833 13.667 14.833 13.667 14.667 14.500 C 14.612 15.490 14.557 16.480 14.500 17.500 C 9.165 17.500 3.830 17.500 -1.667 17.500 C -1.500 16.833 -1.500 16.833 -1.380 16.662 C -1.333 16.620 -1.287 16.578 -1.239 16.535 C -1.213 16.511 -1.213 16.511 -1.079 16.386 C -1.022 16.334 -0.965 16.282 -0.906 16.229 C -0.396 15.745 0.058 15.243 0.490 14.688 C 2.184 12.521 2.184 12.521 3.198 11.729 C 3.791 11.259 4.315 10.675 4.667 10.000 C 4.796 9.620 4.831 9.234 4.833 8.833 C 4.751 8.778 4.751 8.778 4.333 8.500 C 4.388 8.665 4.443 8.830 4.500 9.000 C 4.462 9.047 4.424 9.095 4.385 9.144 C 4.200 9.373 4.017 9.603 3.833 9.833 C 3.799 9.876 3.765 9.919 3.730 9.963 C 3.512 10.236 3.295 10.510 3.080 10.785 C 3.005 10.880 2.930 10.975 2.855 11.070 C 2.142 11.962 2.142 11.962 2.068 12.357 C 1.973 12.792 1.740 13.038 1.448 13.365 C 1.423 13.394 1.423 13.394 1.298 13.544 C 1.249 13.600 1.199 13.657 1.148 13.716 C 1.104 13.766 1.059 13.817 1.014 13.869 C 0.798 14.026 0.593 14.056 0.336 14.113 C 0.053 14.203 -0.141 14.395 -0.349 14.597 C -0.395 14.639 -0.440 14.682 -0.487 14.726 C -0.631 14.861 -0.774 14.998 -0.917 15.135 C -1.012 15.225 -1.108 15.316 -1.204 15.405 C -1.655 15.830 -2.099 16.259 -2.522 16.712 C -2.691 16.854 -2.829 16.904 -3.042 16.958 C -3.138 16.972 -3.234 16.986 -3.333 17.000 C -3.553 16.725 -3.773 16.450 -4.000 16.167 C -4.045 15.028 -4.045 15.028 -3.823 14.562 C -3.710 14.325 -3.665 14.196 -3.682 13.930 C -3.723 13.727 -3.771 13.531 -3.833 13.333 C -4.004 13.186 -4.129 13.090 -4.333 13.000 C -4.633 12.971 -4.929 12.993 -5.229 13.010 C -6.059 13.039 -6.059 13.039 -6.472 12.890 C -6.698 12.750 -6.698 12.750 -7.000 12.500 C -6.945 12.170 -6.890 11.840 -6.833 11.500 C -6.672 11.356 -6.512 11.212 -6.351 11.069 C -6.213 10.945 -6.076 10.822 -5.938 10.698 C -5.346 10.167 -5.346 10.167 -5.040 9.957 C -4.635 9.670 -4.356 9.412 -4.135 8.967 C -4.069 8.822 -4.003 8.675 -3.940 8.529 C -3.904 8.449 -3.868 8.369 -3.832 8.286 C -3.359 7.203 -2.970 6.086 -2.575 4.973 C -2.204 3.929 -1.813 2.906 -1.322 1.911 C -1.283 1.831 -1.245 1.752 -1.205 1.669 C -0.888 1.048 -0.494 0.494 0.000 0.000 Z" fill="#FF6B3D" transform="translate(68.16666666666667,139.5)"/>
  <path d="M 0.000 0.000 C 4.015 0.000 8.030 0.000 12.167 0.000 C 12.222 0.110 12.222 0.110 12.500 0.667 C 12.708 0.814 12.892 0.927 13.115 1.042 C 14.238 1.683 15.002 2.744 15.667 3.833 C 15.639 3.971 15.639 3.971 15.500 4.667 C 15.211 4.920 14.921 5.172 14.629 5.422 C 14.531 5.508 14.432 5.593 14.335 5.679 C 14.192 5.804 14.049 5.927 13.905 6.050 C 13.863 6.088 13.821 6.125 13.777 6.164 C 13.345 6.529 12.861 6.798 12.333 7.000 C 11.962 7.064 11.601 7.064 11.225 7.057 C 11.172 7.057 11.172 7.057 10.905 7.057 C 10.618 7.057 10.331 7.054 10.044 7.051 C 9.743 7.047 9.443 7.047 9.141 7.047 C 8.573 7.045 8.005 7.041 7.436 7.036 C 6.789 7.030 6.141 7.028 5.493 7.025 C 4.162 7.020 2.831 7.011 1.500 7.000 C 1.284 6.815 1.069 6.630 0.855 6.444 C 0.794 6.392 0.733 6.340 0.671 6.287 C 0.283 5.950 -0.074 5.637 -0.279 5.156 C -0.461 4.072 -0.212 2.894 0.000 1.833 C 0.000 1.228 0.000 0.623 0.000 0.000 Z" fill="#FFFFFF" transform="translate(21.333333333333332,0.0)"/>
  <path d="M 0.000 0.000 C 0.747 0.147 1.472 0.319 2.194 0.561 C 4.501 1.328 7.225 1.964 9.667 1.667 C 9.835 1.616 10.002 1.561 10.167 1.500 C 10.621 1.417 11.049 1.397 11.500 1.500 C 12.364 1.832 13.147 2.394 13.750 3.094 C 14.330 3.823 14.330 3.823 14.469 4.260 C 14.557 4.948 14.472 5.637 14.225 6.284 C 13.801 7.023 13.086 7.473 12.363 7.895 C 11.579 8.316 11.579 8.316 11.151 8.346 C 10.979 8.335 10.815 8.312 10.646 8.281 C 10.590 8.273 10.534 8.265 10.477 8.257 C 10.237 8.220 10.015 8.173 9.789 8.083 C 9.384 7.966 8.989 7.957 8.569 7.941 C 8.476 7.936 8.383 7.932 8.287 7.927 C 8.086 7.918 7.884 7.909 7.682 7.900 C 7.363 7.886 7.043 7.871 6.724 7.856 C 5.816 7.812 4.907 7.770 3.999 7.730 C 3.443 7.705 2.887 7.678 2.331 7.651 C 2.119 7.641 1.908 7.632 1.696 7.623 C 1.400 7.610 1.104 7.596 0.807 7.581 C 0.721 7.578 0.634 7.575 0.545 7.571 C -0.016 7.541 -0.503 7.437 -1.000 7.167 C -1.190 7.011 -1.338 6.854 -1.500 6.667 C -1.397 5.480 -1.242 4.307 -1.054 3.131 C -1.010 2.851 -0.967 2.571 -0.925 2.292 C -0.896 2.111 -0.868 1.931 -0.839 1.751 C -0.827 1.669 -0.814 1.586 -0.802 1.501 C -0.719 0.999 -0.584 0.611 -0.333 0.167 C -0.223 0.112 -0.113 0.057 0.000 0.000 Z" fill="#FFFFFF" transform="translate(84.66666666666667,121.16666666666667)"/>
  <path d="M 0.000 0.000 C 0.804 0.111 1.499 0.659 2.131 1.131 C 3.980 2.573 5.210 4.398 6.464 6.347 C 6.653 6.641 6.845 6.932 7.038 7.223 C 7.639 8.133 8.144 9.068 8.617 10.050 C 8.798 10.423 8.998 10.777 9.211 11.131 C 9.590 11.766 9.790 12.302 9.862 13.039 C 9.855 13.291 9.832 13.477 9.777 13.718 C 9.632 14.383 9.626 15.066 9.593 15.745 C 9.586 15.885 9.579 16.026 9.571 16.167 C 9.553 16.509 9.537 16.851 9.520 17.192 C 8.640 17.192 7.760 17.192 6.853 17.192 C 6.798 16.983 6.743 16.773 6.687 16.557 C 6.451 15.781 6.030 15.203 5.541 14.566 C 5.030 13.894 4.629 13.191 4.241 12.444 C 4.087 12.150 3.931 11.858 3.767 11.570 C 3.729 11.503 3.691 11.436 3.652 11.367 C 3.498 11.163 3.351 11.077 3.124 10.963 C 2.630 10.697 2.339 10.308 2.036 9.849 C 1.854 9.549 1.762 9.249 1.666 8.911 C 1.473 8.276 1.095 7.898 0.630 7.437 C -0.270 6.542 -0.860 5.592 -1.418 4.453 C -1.454 4.380 -1.489 4.307 -1.526 4.232 C -1.629 4.022 -1.730 3.811 -1.830 3.599 C -1.860 3.537 -1.890 3.475 -1.920 3.411 C -2.123 2.966 -2.267 2.514 -2.313 2.026 C -2.278 1.754 -2.208 1.512 -2.115 1.255 C -2.093 1.190 -2.070 1.124 -2.047 1.057 C -1.938 0.765 -1.838 0.553 -1.631 0.318 C -1.132 -0.054 -0.604 -0.042 0.000 0.000 Z" fill="#FF6B3D" transform="translate(73.14664713541667,139.8076171875)"/>
  <path d="M 0.000 0.000 C 1.155 0.000 2.310 0.000 3.500 0.000 C 3.555 1.210 3.610 2.420 3.667 3.667 C 3.997 3.887 4.327 4.107 4.667 4.333 C 4.838 4.676 4.852 4.817 4.844 5.188 C 4.842 5.277 4.841 5.367 4.839 5.460 C 4.837 5.528 4.835 5.596 4.833 5.667 C 4.702 5.858 4.570 6.049 4.438 6.240 C 4.401 6.294 4.364 6.348 4.325 6.404 C 4.307 6.430 4.307 6.430 4.215 6.562 C 4.198 6.586 4.198 6.586 4.114 6.707 C 3.975 6.861 3.858 6.920 3.667 7.000 C 3.481 7.020 3.481 7.020 3.277 7.019 C 3.239 7.019 3.239 7.019 3.044 7.019 C 2.962 7.018 2.880 7.017 2.796 7.016 C 2.753 7.016 2.753 7.016 2.539 7.016 C 2.269 7.015 1.999 7.013 1.729 7.010 C 1.546 7.010 1.363 7.009 1.180 7.008 C 0.731 7.006 0.282 7.003 -0.167 7.000 C -0.302 6.897 -0.436 6.794 -0.570 6.690 C -0.607 6.661 -0.607 6.661 -0.796 6.516 C -1.081 6.260 -1.194 6.020 -1.333 5.667 C -1.306 5.502 -1.306 5.502 -1.167 4.667 C -0.837 4.337 -0.507 4.007 -0.167 3.667 C -0.112 2.457 -0.057 1.247 0.000 0.000 Z" fill="#FFFFFF" transform="translate(5.833333333333333,0.0)"/>
  <path d="M 0.000 0.000 C 0.220 0.165 0.440 0.330 0.667 0.500 C 0.667 0.610 0.667 0.720 0.667 0.833 C 0.719 0.838 0.771 0.843 0.825 0.848 C 1.149 0.892 1.414 0.942 1.688 1.128 C 1.867 1.290 2.033 1.459 2.198 1.635 C 2.255 1.693 2.312 1.750 2.371 1.809 C 2.716 2.166 3.011 2.522 3.167 3.000 C 3.199 3.320 3.199 3.320 3.188 3.625 C 3.184 3.727 3.181 3.829 3.178 3.935 C 3.175 4.011 3.171 4.088 3.167 4.167 C 3.112 4.222 3.057 4.277 3.000 4.333 C 3.000 4.608 3.000 4.883 3.000 5.167 C 2.890 5.167 2.780 5.167 2.667 5.167 C 2.646 5.080 2.625 4.993 2.604 4.903 C 2.353 3.967 1.929 3.285 1.344 2.518 C 0.969 2.026 0.632 1.531 0.333 0.990 C 0.299 0.928 0.264 0.866 0.229 0.803 C 0.070 0.508 0.000 0.341 0.000 0.000 Z" fill="#FFFFFF" transform="translate(77.33333333333333,151.83333333333334)"/>
</svg>
