<svg xmlns="http://www.w3.org/2000/svg" viewBox="0 0 101 202">
  <path d="M78.0,198.3 C76.5,199.1 74.4,197.9 73.3,197.0 C72.1,196.1 73.1,201.3 71.2,193.0 C69.3,184.7 64.1,154.3 62.0,147.1 C59.9,139.9 61.4,142.0 58.9,150.0 C56.4,158.0 49.8,186.9 47.0,195.0 C44.1,203.1 43.7,198.4 42.0,198.4 C40.3,198.4 36.3,203.1 36.7,195.0 C37.1,186.9 44.3,157.8 44.3,150.0 C44.3,142.2 38.2,149.3 36.8,148.0 C35.3,146.7 38.0,144.8 35.6,142.0 C33.1,139.2 24.5,133.7 22.0,131.1 C19.5,128.4 19.1,130.2 20.7,126.0 C22.3,121.8 26.4,111.2 31.5,106.0 C36.7,100.8 47.4,99.7 51.6,95.0 C55.7,90.3 59.4,83.1 56.3,78.0 C53.3,72.9 36.6,67.4 33.0,64.2 C29.4,61.0 31.7,58.8 35.0,58.7 C38.3,58.6 47.8,61.2 53.0,63.8 C58.2,66.3 65.7,66.5 66.3,74.0 C66.9,81.5 56.9,99.8 56.6,109.0 C56.2,118.2 60.7,124.2 64.0,129.2 C67.3,134.2 73.0,128.5 76.1,139.0 C79.2,149.5 82.1,182.1 82.4,192.0 C82.8,201.9 79.5,197.4 78.0,198.3 Z M44.0,136.0 C45.8,135.7 44.0,129.0 42.7,126.0 C41.4,123.0 37.8,117.9 36.0,118.3 C34.2,118.6 30.8,125.0 32.1,128.0 C33.5,131.0 42.3,136.3 44.0,136.0 Z M37.0,98.1 C33.9,98.4 28.8,97.0 26.2,95.0 C23.7,93.0 21.9,88.9 21.7,86.0 C21.5,83.1 23.0,79.8 25.0,77.6 C27.0,75.4 31.0,73.0 34.0,72.7 C37.0,72.4 40.8,74.0 43.0,75.9 C45.2,77.8 47.0,81.1 47.3,84.0 C47.7,86.9 46.7,90.8 45.0,93.2 C43.3,95.5 40.1,97.8 37.0,98.1 Z" fill="#FFFFFF"/>
  <path d="M72.0,136.7 C72.1,139.9 68.0,135.0 66.0,132.2 C64.0,129.4 61.4,124.0 59.9,120.0 C58.3,116.0 56.9,111.3 56.6,108.0 C56.2,104.7 56.6,99.3 58.0,100.2 C59.4,101.0 62.8,106.9 65.1,113.0 C67.5,119.1 71.9,133.5 72.0,136.7 Z" fill="#FF6B3D"/>
</svg>
